<svg width="1919.9999999999998" height="1080" xmlns="http://www.w3.org/2000/svg">
 <!-- Created with Method Draw - http://github.com/duopixel/Method-Draw/ -->

 <g>
  <title>background</title>
  <rect x="-1" y="-1" width="1922" height="1082" id="canvas_background" fill="#fff"/>
 </g>
 <g>
  <title>Layer 1</title>
  <path fill="#a5a5a5" stroke="#a5a5a5" stroke-width="2" stroke-opacity="null" fill-opacity="null" d="m738.545156,560.52674c0,0 0,48.00229 0,48.00229c0,0 299.01426,-5.00024 299.01426,-5.00024c0,0 1.00005,-42.00201 1.00005,-42.00201c0,0 -300.01431,-1.00004 -300.01431,-1.00004z" id="svg_188"/>
  <path fill="#a5a5a5" stroke="#a5a5a5" stroke-width="2" stroke-opacity="null" fill-opacity="null" d="m1052.05017,618.5295c0,0 507.02418,0 507.02418,0c0,0 0,-19.0009 0,-19.0009c0,0 -520.0248,1.00004 -520.0248,1.00004c0,0 13.00062,18.00086 13.00062,18.00086z" id="svg_187"/>
  <path fill="#a5a5a5" stroke="#a5a5a5" stroke-width="2" stroke-opacity="null" fill-opacity="null" d="m190.50907,599.5286c0,0 884.04217,0 884.04217,0c0,0 0,19.0009 0,19.0009c0,0 -884.04217,0 -884.04217,0c0,0 0,-19.0009 0,-19.0009z" id="svg_184"/>
  <path stroke="#a5a5a5" fill="#a5a5a5" stroke-width="2" fill-opacity="null" d="m200.56643,279.29346c0,0 0,39.3635 0,39.3635c0,0 437.56613,0.62482 437.56613,0.62482c0,0 0,-39.98832 0,-39.98832c0,0 -79.04822,0 -79.04822,0c0,0 0,19.99416 0,19.99416c0,0 -319.30502,0 -319.30502,0c0,0 -0.62243,-19.99416 -1.24484,-19.99417c0.62241,0.00001 -37.96806,0.00001 -37.96806,0.00001l0.00001,0z" id="svg_181"/>
  <path fill="#a5a5a5" stroke="#a5a5a5" stroke-width="2" fill-opacity="null" d="m1139.97965,279.29346c0,0 0,39.98832 0,39.98832c0,0 439.24675,0 439.24675,0c0,0 0,-39.98832 0,-39.98832c0,0 -39.3635,0.62481 -39.3635,0.62481c0,0 0,19.36935 0,19.36935c0,0 -319.9066,0.62482 -319.9066,0.62482c0,0 0,-20.61898 -0.31241,-20.61899c0.31241,0.00001 -79.66424,0.00001 -79.66424,0.00001z" id="svg_180"/>
  <path fill="#a5a5a5" stroke="#a5a5a5" stroke-width="2" fill-opacity="null" d="m1479.50186,318.77734c0,0 0,288.77476 0,288.77476c0,0 20.00171,0 20.00171,0c0,0 1.25011,-298.77562 0.62506,-298.77562c0.62505,0 -20.62677,10.00086 -20.62677,10.00086z" id="svg_179"/>
  <path fill="#a5a5a5" stroke="#a5a5a5" stroke-width="2" fill-opacity="null" d="m280.02377,318.77734c0,0 0,288.77476 0,288.77476c0,0 20.00172,0 20.00172,0c0,0 1.2501,-298.77562 0.62505,-298.77562c0.62505,0 -20.62677,10.00086 -20.62677,10.00086z" id="svg_178"/>
  <line fill="none" stroke="#000000" stroke-width="2" x1="300" y1="319.996314" x2="599.996314" y2="319.996314" id="svg_2" stroke-linejoin="null" stroke-linecap="null"/>
  <rect fill="#70ad47" stroke="#000000" stroke-width="2" x="199.996314" y="199.996314" width="40" height="80" id="svg_3"/>
  <rect fill="#00b0f0" stroke="#000000" stroke-width="2" x="239.996314" y="199.921395" width="120" height="100" id="svg_4"/>
  <rect fill="#00b0f0" stroke="#000000" stroke-width="2" x="359.991891" y="199.921395" width="120" height="100" id="svg_5"/>
  <rect fill="#00b0f0" stroke="#000000" stroke-width="2" x="479.987468" y="199.921395" width="80" height="100" id="svg_6"/>
  <rect fill="#70ad47" stroke="#000000" stroke-width="2" x="599.98157" y="319.991891" width="40" height="80" id="svg_7"/>
  <rect fill="none" stroke="#000000" stroke-width="2" fill-opacity="null" x="559.979328" y="219.996314" width="80" height="60" id="svg_8"/>
  <line fill="none" stroke="#000000" stroke-width="2" stroke-opacity="null" fill-opacity="null" x1="599.996314" y1="219.996314" x2="599.996314" y2="279.996314" id="svg_9" stroke-linejoin="null" stroke-linecap="null"/>
  <line fill="none" stroke="#000000" stroke-width="2" stroke-opacity="null" fill-opacity="null" x1="639.996314" y1="280" x2="639.996314" y2="319.996314" id="svg_10" stroke-linejoin="null" stroke-linecap="null"/>
  <line fill="none" stroke="#000000" stroke-width="2" stroke-opacity="null" fill-opacity="null" x1="200.012532" y1="276.996314" x2="200.012532" y2="319.996314" id="svg_11" stroke-linejoin="null" stroke-linecap="null"/>
  <line fill="none" stroke="#000000" stroke-width="2" fill-opacity="null" x1="300" y1="320" x2="300" y2="560" id="svg_13" stroke-linejoin="null" stroke-linecap="null"/>
  <line fill="none" stroke="#000000" stroke-width="2" fill-opacity="null" x1="279.999634" y1="320" x2="279.999634" y2="600" id="svg_14" stroke-linejoin="null" stroke-linecap="null"/>
  <rect fill="none" stroke="#000000" stroke-width="2" stroke-opacity="null" fill-opacity="null" x="209.999817" y="320" width="70" height="40" id="svg_15"/>
  <line fill="none" stroke="#000000" stroke-width="2" x1="199.996314" y1="319.996314" x2="280" y2="319.996314" id="svg_16" stroke-linejoin="null" stroke-linecap="null"/>
  <rect fill="#00b0f0" stroke="#000000" stroke-width="2" x="180.003299" y="360" width="100" height="120" id="svg_17"/>
  <rect fill="none" stroke="#000000" stroke-width="2" stroke-opacity="null" fill-opacity="null" x="180.0033" y="480" width="100.001833" height="60" id="svg_19"/>
  <rect fill="none" stroke="#000000" stroke-width="2" stroke-opacity="null" fill-opacity="null" x="210.00385" y="539.90884" width="70" height="60" id="svg_20"/>
  <rect fill="#70ad47" stroke="#000000" stroke-width="2" x="320" y="559.909207" width="80" height="40" id="svg_21"/>
  <rect fill="#00b0f0" stroke="#000000" stroke-width="2" x="400.007332" y="529.908657" width="120" height="70" id="svg_22"/>
  <rect fill="#00b0f0" stroke="#000000" stroke-width="2" x="520.009526" y="529.908657" width="120" height="70" id="svg_23"/>
  <rect fill="#00b0f0" stroke="#000000" stroke-width="2" x="560.004272" y="619.909464" width="80" height="80" id="svg_24"/>
  <rect fill="#00b0f0" stroke="#000000" stroke-width="2" x="440.003357" y="619.909464" width="120" height="80" id="svg_25"/>
  <rect fill="#00b0f0" stroke="#000000" stroke-width="2" x="320.002441" y="619.909464" width="120" height="80" id="svg_26"/>
  <rect fill="#00b0f0" stroke="#000000" stroke-width="2" x="240.001831" y="619.909464" width="80" height="80" id="svg_27"/>
  <rect fill="none" stroke="#000000" stroke-width="2" stroke-opacity="null" fill-opacity="null" x="190.00145" y="579.909159" width="20" height="20" id="svg_28"/>
  <line fill="none" stroke="#000000" stroke-width="2" stroke-opacity="null" fill-opacity="null" x1="190.00145" y1="600" x2="190.00145" y2="620" id="svg_29" stroke-linejoin="null" stroke-linecap="null"/>
  <rect fill="none" stroke="#000000" stroke-width="2" stroke-opacity="null" fill-opacity="null" x="200.001526" y="619.909464" width="40" height="90" id="svg_30"/>
  <line fill="none" stroke="#000000" stroke-width="2" stroke-opacity="null" fill-opacity="null" x1="190.00145" y1="620" x2="200.001526" y2="620" id="svg_31" stroke-linejoin="null" stroke-linecap="null"/>
  <rect fill="#00b0f0" stroke="#000000" stroke-width="2" x="640.004883" y="514.908663" width="80" height="85" id="svg_32"/>
  <rect fill="none" stroke="#000000" stroke-width="2" stroke-opacity="null" fill-opacity="null" x="640.004883" y="619.909464" width="80" height="60" id="svg_33"/>
  <rect fill="#70ad47" stroke="#000000" stroke-width="2" x="719.982486" y="619.99418" width="40" height="80" id="svg_34"/>
  <line fill="none" stroke-width="2" fill-opacity="null" x1="720" y1="560" x2="1040" y2="560" id="svg_35" stroke-linejoin="null" stroke-linecap="null" stroke="#000000"/>
  <rect fill="#00b0f0" stroke="#000000" stroke-width="2" x="760.005798" y="619.909464" width="80" height="70" id="svg_36"/>
  <rect fill="#00b0f0" stroke="#000000" stroke-width="2" x="840.006409" y="619.909464" width="80" height="70" id="svg_37"/>
  <rect fill="#00b0f0" stroke="#000000" stroke-width="2" x="920.007019" y="619.909464" width="80" height="70" id="svg_38"/>
  <rect fill="#70ad47" stroke="#000000" stroke-width="2" x="999.984622" y="619.99418" width="40" height="80" id="svg_40"/>
  <rect fill="none" stroke="#000000" stroke-width="2" stroke-opacity="null" fill-opacity="null" x="1040.007935" y="619.909464" width="80" height="60" id="svg_41"/>
  <rect fill="#00b0f0" stroke="#000000" stroke-width="2" x="1120.008545" y="619.909464" width="80" height="80" id="svg_42"/>
  <rect fill="#00b0f0" stroke="#000000" stroke-width="2" x="1200.009155" y="619.909464" width="120" height="80" id="svg_43"/>
  <rect fill="#00b0f0" stroke="#000000" stroke-width="2" x="1320.010071" y="619.909464" width="120" height="80" id="svg_44"/>
  <rect fill="#00b0f0" stroke="#000000" stroke-width="2" x="1440.010986" y="619.909464" width="120" height="80" id="svg_45"/>
  <rect fill="none" stroke="#000000" stroke-width="2" stroke-opacity="null" fill-opacity="null" x="1040.007935" y="514.908663" width="80" height="85" id="svg_46"/>
  <rect fill="#00b0f0" stroke="#000000" stroke-width="2" x="1280.015325" y="529.908657" width="120" height="70" id="svg_47"/>
  <rect fill="#00b0f0" stroke="#000000" stroke-width="2" x="1120.014104" y="529.908657" width="80" height="70" id="svg_48"/>
  <rect fill="#00b0f0" stroke="#000000" stroke-width="2" x="1200.014714" y="529.908657" width="80" height="70" id="svg_49"/>
  <rect fill="#70ad47" stroke="#000000" stroke-width="2" x="1400.000763" y="559.909207" width="80" height="40" id="svg_50"/>
  <line fill="none" stroke="#000000" stroke-width="2" fill-opacity="null" x1="1480.00061" y1="320" x2="1480.00061" y2="560" id="svg_51" stroke-linejoin="null" stroke-linecap="null"/>
  <line fill="none" stroke="#000000" stroke-width="2" x1="1179.999847" y1="319.996314" x2="1479.999847" y2="319.996314" id="svg_52" stroke-linejoin="null" stroke-linecap="null"/>
  <rect fill="#70ad47" stroke="#000000" stroke-width="2" x="1139.999542" y="319.991891" width="40" height="80" id="svg_53"/>
  <line fill="none" stroke="#000000" stroke-width="2" stroke-opacity="null" fill-opacity="null" x1="1140" y1="280" x2="1140" y2="319.996314" id="svg_54" stroke-linejoin="null" stroke-linecap="null"/>
  <rect fill="none" stroke="#000000" stroke-width="2" fill-opacity="null" x="1139.983753" y="219.996314" width="80" height="60" id="svg_55"/>
  <line fill="none" stroke="#000000" stroke-width="2" stroke-opacity="null" fill-opacity="null" x1="1180.000739" y1="219.996314" x2="1180.000739" y2="279.996314" id="svg_56" stroke-linejoin="null" stroke-linecap="null"/>
  <rect fill="#00b0f0" stroke="#000000" stroke-width="2" x="1220" y="199.921395" width="80" height="100" id="svg_57"/>
  <rect fill="#00b0f0" stroke="#000000" stroke-width="2" x="1300" y="199.921395" width="120" height="100" id="svg_58"/>
  <rect fill="#00b0f0" stroke="#000000" stroke-width="2" x="1420" y="199.921395" width="120" height="100" id="svg_59"/>
  <rect fill="#70ad47" stroke="#000000" stroke-width="2" x="1540" y="199.996314" width="40" height="80" id="svg_60"/>
  <line fill="none" stroke="#000000" stroke-width="2" x1="1500" y1="319.996314" x2="1580" y2="319.996314" id="svg_61" stroke-linejoin="null" stroke-linecap="null"/>
  <rect fill="#00b0f0" stroke="#000000" stroke-width="2" x="1500.011444" y="369.666527" width="60" height="80" id="svg_62"/>
  <rect fill="#00b0f0" stroke="#000000" stroke-width="2" x="1500.011444" y="449.667137" width="60" height="80" id="svg_63"/>
  <line fill="none" stroke="#000000" stroke-width="2" fill-opacity="null" x1="1500.011444" y1="320" x2="1500.011444" y2="370" id="svg_64" stroke-linejoin="null" stroke-linecap="null"/>
  <rect fill="none" stroke="#000000" stroke-width="2" stroke-opacity="null" fill-opacity="null" x="300.002289" y="559.909006" width="20" height="40" id="svg_65"/>
  <rect fill="none" stroke="#000000" stroke-width="2" stroke-opacity="null" fill-opacity="null" x="1500.011444" y="579.909159" width="40" height="20.000153" id="svg_66"/>
  <line fill="none" stroke="#000000" stroke-width="2" stroke-opacity="null" fill-opacity="null" x1="1500.011444" y1="530" x2="1500" y2="579.909159" id="svg_67" stroke-linejoin="null" stroke-linecap="null"/>
  <line fill="none" stroke="#000000" stroke-width="2" stroke-opacity="null" fill-opacity="null" x1="1580" y1="280" x2="1580.012055" y2="319.907175" id="svg_68" stroke-linejoin="null" stroke-linecap="null"/>
  <rect fill="#7030a0" stroke="#7030a0" stroke-width="2" x="720.005486" y="559.909006" width="20" height="40" id="svg_69"/>
  <line fill="none" stroke="#000000" stroke-width="2" stroke-opacity="null" fill-opacity="null" x1="1560" y1="619.909464" x2="1560" y2="600" id="svg_70" stroke-linejoin="null" stroke-linecap="null"/>
  <line fill="none" stroke="#000000" stroke-width="2" stroke-opacity="null" fill-opacity="null" x1="1540" y1="600" x2="1560" y2="600" id="svg_71" stroke-linejoin="null" stroke-linecap="null"/>
  <line fill="none" stroke="#000000" stroke-width="2" x1="1080.00824" y1="515" x2="1080.00824" y2="600" id="svg_72" stroke-linejoin="null" stroke-linecap="null"/>
  <ellipse fill="#ff0000" stroke="#ff0000" stroke-width="2" cx="620" cy="319.907175" id="svg_73" rx="5.833378" ry="6"/>
  <ellipse fill="#ff0000" stroke="#ff0000" stroke-width="2" cx="219.996948" cy="280" id="svg_74" rx="5.833378" ry="6"/>
  <ellipse fill="#ff0000" stroke="#ff0000" stroke-width="2" cx="380.000458" cy="600.000305" id="svg_75" rx="5.833378" ry="6"/>
  <ellipse fill="#ff0000" stroke="#ff0000" stroke-width="2" cx="1420.000305" cy="600.000305" id="svg_76" rx="5.833378" ry="6"/>
  <ellipse fill="#ff0000" stroke="#ff0000" stroke-width="2" cx="1159.998932" cy="319.907175" id="svg_77" rx="5.833378" ry="6"/>
  <ellipse fill="#ff0000" stroke="#ff0000" stroke-width="2" cx="1560.000458" cy="279.90687" id="svg_78" rx="5.833378" ry="6"/>
  <ellipse fill="#000000" stroke="#000000" stroke-width="2" cx="1229.999466" cy="299.907022" id="svg_79" rx="5.833378" ry="6"/>
  <ellipse fill="#000000" stroke="#000000" stroke-width="2" cx="1289.999924" cy="299.907022" id="svg_80" rx="5.833378" ry="6"/>
  <ellipse fill="#000000" stroke="#000000" stroke-width="2" cx="1310.000076" cy="299.907022" id="svg_81" rx="5.833378" ry="6"/>
  <ellipse fill="#000000" stroke="#000000" stroke-width="2" cx="1410.000839" cy="299.907022" id="svg_82" rx="5.833378" ry="6"/>
  <ellipse fill="#000000" stroke="#000000" stroke-width="2" cx="1430.000992" cy="299.907022" id="svg_83" rx="5.833378" ry="6"/>
  <ellipse fill="#000000" stroke="#000000" stroke-width="2" cx="1530.001755" cy="299.907022" id="svg_84" rx="5.833378" ry="6"/>
  <ellipse fill="#000000" stroke="#000000" stroke-width="2" cx="1500.001526" cy="384.907671" id="svg_85" rx="5.833378" ry="6"/>
  <ellipse fill="#000000" stroke="#000000" stroke-width="2" cx="1500.001526" cy="439.908091" id="svg_86" rx="5.833378" ry="6"/>
  <ellipse fill="#000000" stroke="#000000" stroke-width="2" cx="1500.001526" cy="459.908243" id="svg_87" rx="5.833378" ry="6"/>
  <ellipse fill="#000000" stroke="#000000" stroke-width="2" cx="1500.001526" cy="519.908701" id="svg_88" rx="5.833378" ry="6"/>
  <ellipse fill="#000000" stroke="#000000" stroke-width="2" cx="250.000153" cy="299.907022" id="svg_89" rx="5.833378" ry="6"/>
  <ellipse fill="#000000" stroke="#000000" stroke-width="2" cx="350.000916" cy="299.907022" id="svg_90" rx="5.833378" ry="6"/>
  <ellipse fill="#000000" stroke="#000000" stroke-width="2" cx="370.001068" cy="299.907022" id="svg_91" rx="5.833378" ry="6"/>
  <ellipse fill="#000000" stroke="#000000" stroke-width="2" cx="470.001831" cy="299.907022" id="svg_93" rx="5.833378" ry="6"/>
  <ellipse fill="#000000" stroke="#000000" stroke-width="2" cx="490.001984" cy="299.907022" id="svg_94" rx="5.833378" ry="6"/>
  <ellipse fill="#000000" stroke="#000000" stroke-width="2" cx="550.002441" cy="299.907022" id="svg_95" rx="5.833378" ry="6"/>
  <ellipse fill="#000000" stroke="#000000" stroke-width="2" cx="1540.001831" cy="619.909464" id="svg_96" rx="5.833378" ry="6"/>
  <ellipse fill="#000000" stroke="#000000" stroke-width="2" cx="1460.001221" cy="619.909464" id="svg_97" rx="5.833378" ry="6"/>
  <ellipse fill="#000000" stroke="#000000" stroke-width="2" cx="1420.000916" cy="619.909464" id="svg_98" rx="5.833378" ry="6"/>
  <ellipse fill="#000000" stroke="#000000" stroke-width="2" cx="1340.000305" cy="619.909464" id="svg_99" rx="5.833378" ry="6"/>
  <ellipse fill="#000000" stroke="#000000" stroke-width="2" cx="1300" cy="619.909464" id="svg_100" rx="5.833378" ry="6"/>
  <ellipse fill="#000000" stroke="#000000" stroke-width="2" cx="1219.99939" cy="619.909464" id="svg_101" rx="5.833378" ry="6"/>
  <ellipse fill="#000000" stroke="#000000" stroke-width="2" cx="1189.999161" cy="619.909464" id="svg_102" rx="5.833378" ry="6"/>
  <ellipse fill="#000000" stroke="#000000" stroke-width="2" cx="1129.998703" cy="619.909464" id="svg_103" rx="5.833378" ry="6"/>
  <ellipse fill="#000000" stroke="#000000" stroke-width="2" cx="1129.998703" cy="599.909311" id="svg_104" rx="5.833378" ry="6"/>
  <ellipse fill="#000000" stroke="#000000" stroke-width="2" cx="1189.999161" cy="599.909311" id="svg_105" rx="5.833378" ry="6"/>
  <ellipse fill="#000000" stroke="#000000" stroke-width="2" cx="1209.999313" cy="599.909311" id="svg_106" rx="5.833378" ry="6"/>
  <ellipse fill="#000000" stroke="#000000" stroke-width="2" cx="1269.999771" cy="599.909311" id="svg_107" rx="5.833378" ry="6"/>
  <ellipse fill="#000000" stroke="#000000" stroke-width="2" cx="1289.999924" cy="599.909311" id="svg_108" rx="5.833378" ry="6" transform="rotate(1 1289.9992675781157,599.9093017578072) "/>
  <ellipse fill="#000000" stroke="#000000" stroke-width="2" cx="1390.000687" cy="599.909311" id="svg_109" rx="5.833378" ry="6" transform="rotate(1 1389.9968261718614,599.9093017578077) "/>
  <ellipse fill="#000000" stroke="#000000" stroke-width="2" cx="989.997635" cy="619.909464" id="svg_110" rx="5.833378" ry="6" transform="rotate(1 990.0053100585985,619.9095458984424) "/>
  <ellipse fill="#000000" stroke="#000000" stroke-width="2" cx="929.997177" cy="619.909464" id="svg_111" rx="5.833378" ry="6" transform="rotate(1 930.004577636717,619.9095458984385) "/>
  <ellipse fill="#000000" stroke="#000000" stroke-width="2" cx="909.997025" cy="619.909464" id="svg_112" rx="5.833378" ry="6" transform="rotate(1 910.0043334961016,619.9095458984415) "/>
  <ellipse fill="#000000" stroke="#000000" stroke-width="2" cx="849.996567" cy="619.909464" id="svg_113" rx="5.833378" ry="6" transform="rotate(1 850.0036010742084,619.9095458984377) "/>
  <ellipse fill="#000000" stroke="#000000" stroke-width="2" cx="829.996414" cy="619.909464" id="svg_114" rx="5.833378" ry="6" transform="rotate(1 830.003356933593,619.9095458984407) "/>
  <ellipse fill="#000000" stroke="#000000" stroke-width="2" cx="769.995956" cy="619.909464" id="svg_115" rx="5.833378" ry="6" transform="rotate(1 770.0026245117114,619.9095458984368) "/>
  <ellipse fill="#000000" stroke="#000000" stroke-width="2" cx="629.994888" cy="619.909464" id="svg_116" rx="5.833378" ry="6" transform="rotate(1 630.000915527333,619.9095458984385) "/>
  <ellipse fill="#000000" stroke="#000000" stroke-width="2" cx="569.994431" cy="619.909464" id="svg_117" rx="5.833378" ry="6" transform="rotate(1 570.0001831054631,619.909545898441) "/>
  <ellipse fill="#000000" stroke="#000000" stroke-width="2" cx="549.994278" cy="619.909464" id="svg_118" rx="5.833378" ry="6" transform="rotate(1 549.9999389648359,619.9095458984376) "/>
  <ellipse fill="#000000" stroke="#000000" stroke-width="2" cx="449.993515" cy="619.909464" id="svg_119" rx="5.833378" ry="6" transform="rotate(1 449.9987182617234,619.9095458984364) "/>
  <ellipse fill="#000000" stroke="#000000" stroke-width="2" cx="429.993362" cy="619.909464" id="svg_120" rx="5.833378" ry="6" transform="rotate(1 429.9984741210846,619.9095458984362) "/>
  <ellipse fill="#000000" stroke="#000000" stroke-width="2" cx="329.992599" cy="619.909464" id="svg_121" rx="5.833378" ry="6" transform="rotate(1 329.9972534179604,619.9095458984351) "/>
  <ellipse fill="#000000" stroke="#000000" stroke-width="2" cx="309.992447" cy="619.909464" id="svg_122" rx="5.833378" ry="6" transform="rotate(1 309.99700927734494,619.9095458984349) "/>
  <ellipse fill="#000000" stroke="#000000" stroke-width="2" cx="249.991989" cy="619.909464" id="svg_123" rx="5.833378" ry="6" transform="rotate(1 249.9963989257741,619.9095458984386) "/>
  <ellipse fill="#ff0000" stroke="#ff0000" stroke-width="2" cx="1019.997253" cy="620.000458" id="svg_124" rx="5.833378" ry="6"/>
  <ellipse fill="#ff0000" stroke="#ff0000" stroke-width="2" cx="739.995117" cy="620.000458" id="svg_125" rx="5.833378" ry="6"/>
  <ellipse fill="#000000" stroke="#000000" stroke-width="2" cx="280.000381" cy="376.574274" id="svg_126" rx="5.833378" ry="6"/>
  <ellipse fill="#000000" stroke="#000000" stroke-width="2" cx="280.000381" cy="459.908243" id="svg_127" rx="5.833378" ry="6"/>
  <ellipse fill="#000000" stroke="#000000" stroke-width="2" cx="409.99321" cy="599.909311" id="svg_128" rx="5.833378" ry="6" transform="rotate(1 409.9982299804691,599.9093017578109) "/>
  <ellipse fill="#000000" stroke="#000000" stroke-width="2" cx="509.993973" cy="599.909311" id="svg_129" rx="5.833378" ry="6" transform="rotate(2 509.99444580078534,599.9093017578117) "/>
  <ellipse fill="#000000" stroke="#000000" stroke-width="2" cx="529.994125" cy="599.909311" id="svg_130" rx="5.833378" ry="6" transform="rotate(2 529.9946899414097,599.9093017578117) "/>
  <ellipse fill="#000000" stroke="#000000" stroke-width="2" cx="629.994888" cy="599.909311" id="svg_131" rx="5.833378" ry="6" transform="rotate(2 629.9959106445314,599.9093017578117) "/>
  <ellipse fill="#000000" stroke="#000000" stroke-width="2" cx="649.995041" cy="599.909311" id="svg_132" rx="5.833378" ry="6" transform="rotate(2 649.9961547851615,599.9093017578116) "/>
  <ellipse fill="#000000" stroke="#000000" stroke-width="2" cx="699.995422" cy="599.909311" id="svg_133" rx="5.833378" ry="6" transform="rotate(2 699.9967651367223,599.9093017578116) "/>
  <text style="cursor: move;" fill="#000000" stroke="#000000" stroke-width="0" stroke-opacity="null" x="280.002136" y="258.240038" id="svg_135" font-size="24" font-family="Helvetica, Arial, sans-serif" text-anchor="start" xml:space="preserve">320</text>
  <text style="cursor: move;" fill="#000000" stroke="#000000" stroke-width="0" stroke-opacity="null" x="405.00309" y="258.240038" id="svg_136" font-size="24" font-family="Helvetica, Arial, sans-serif" text-anchor="start" xml:space="preserve">322</text>
  <text style="cursor: move;" fill="#000000" stroke="#000000" stroke-width="0" stroke-opacity="null" x="500.003815" y="258.240038" id="svg_137" font-size="24" font-family="Helvetica, Arial, sans-serif" text-anchor="start" xml:space="preserve">324</text>
  <text style="cursor: move;" fill="#000000" stroke="#000000" stroke-width="0" stroke-opacity="null" x="1241.664696" y="258.240038" id="svg_138" font-size="24" font-family="Helvetica, Arial, sans-serif" text-anchor="start" xml:space="preserve">326</text>
  <text style="cursor: move;" fill="#000000" stroke="#000000" stroke-width="0" stroke-opacity="null" x="1341.665459" y="258.240038" id="svg_139" font-size="24" font-family="Helvetica, Arial, sans-serif" text-anchor="start" xml:space="preserve">328</text>
  <text style="cursor: move;" fill="#000000" stroke="#000000" stroke-width="0" stroke-opacity="null" x="1461.666374" y="258.240038" id="svg_140" font-size="24" font-family="Helvetica, Arial, sans-serif" text-anchor="start" xml:space="preserve">330</text>
  <text style="cursor: move;" fill="#000000" stroke="#000000" stroke-width="0" stroke-opacity="null" x="1510.000076" y="419.907938" id="svg_141" font-size="24" font-family="Helvetica, Arial, sans-serif" text-anchor="start" xml:space="preserve">332</text>
  <text style="cursor: move;" fill="#000000" stroke="#000000" stroke-width="0" stroke-opacity="null" x="1510.000076" y="496.57519" id="svg_142" font-size="24" font-family="Helvetica, Arial, sans-serif" text-anchor="start" xml:space="preserve">334</text>
  <text style="cursor: move;" fill="#000000" stroke="#000000" stroke-width="0" stroke-opacity="null" x="1481.666527" y="668.243166" id="svg_143" font-size="24" font-family="Helvetica, Arial, sans-serif" text-anchor="start" xml:space="preserve">301</text>
  <text style="cursor: move;" fill="#000000" stroke="#000000" stroke-width="0" stroke-opacity="null" x="1359.998932" y="668.243166" id="svg_144" font-size="24" font-family="Helvetica, Arial, sans-serif" text-anchor="start" xml:space="preserve">303</text>
  <text style="cursor: move;" fill="#000000" stroke="#000000" stroke-width="0" stroke-opacity="null" x="1239.998016" y="668.243166" id="svg_145" font-size="24" font-family="Helvetica, Arial, sans-serif" text-anchor="start" xml:space="preserve">305</text>
  <text style="cursor: move;" fill="#000000" stroke-width="0" stroke-opacity="null" x="1141.663933" y="668.243166" id="svg_146" font-size="24" font-family="Helvetica, Arial, sans-serif" text-anchor="start" xml:space="preserve" stroke="#000000">307</text>
  <text style="cursor: move;" fill="#000000" stroke-width="0" stroke-opacity="null" x="1141.663933" y="574.90912" id="svg_147" font-size="24" font-family="Helvetica, Arial, sans-serif" text-anchor="start" xml:space="preserve" stroke="#000000">306</text>
  <text style="cursor: move;" fill="#000000" stroke-width="0" stroke-opacity="null" x="1218.331184" y="574.90912" id="svg_148" font-size="24" font-family="Helvetica, Arial, sans-serif" text-anchor="start" xml:space="preserve" stroke="#000000">304</text>
  <text style="cursor: move;" fill="#000000" stroke-width="0" stroke-opacity="null" x="1318.331947" y="574.90912" id="svg_149" font-size="24" font-family="Helvetica, Arial, sans-serif" text-anchor="start" xml:space="preserve" stroke="#000000">302</text>
  <text style="cursor: move;" fill="#000000" stroke-width="0" stroke-opacity="null" x="659.665611" y="574.90912" id="svg_150" font-size="24" font-family="Helvetica, Arial, sans-serif" text-anchor="start" xml:space="preserve" stroke="#000000">308</text>
  <text style="cursor: move;" fill="#000000" stroke-width="0" stroke-opacity="null" x="561.664848" y="574.90912" id="svg_151" font-size="24" font-family="Helvetica, Arial, sans-serif" text-anchor="start" xml:space="preserve" stroke="#000000">310</text>
  <text style="cursor: move;" fill="#000000" stroke-width="0" stroke-opacity="null" x="441.663933" y="574.90912" id="svg_152" font-size="24" font-family="Helvetica, Arial, sans-serif" text-anchor="start" xml:space="preserve" stroke="#000000">312</text>
  <text style="cursor: move;" fill="#000000" stroke-width="0" stroke-opacity="null" x="209.995499" y="518.242021" id="svg_153" font-size="24" font-family="Helvetica, Arial, sans-serif" text-anchor="start" xml:space="preserve" stroke="#000000">314</text>
  <text style="cursor: move;" fill="#000000" stroke-width="0" stroke-opacity="null" x="209.995499" y="426.574655" id="svg_154" font-size="24" font-family="Helvetica, Arial, sans-serif" text-anchor="start" xml:space="preserve" stroke="#000000">316</text>
  <text style="cursor: move;" fill="#000000" stroke-width="0" stroke-opacity="null" x="223.328934" y="348.240724" id="svg_155" font-size="24" font-family="Helvetica, Arial, sans-serif" text-anchor="start" xml:space="preserve" stroke="#000000">318</text>
  <text style="cursor: move;" fill="#000000" stroke-width="0" stroke-opacity="null" x="1061.663322" y="668.243166" id="svg_156" font-size="24" font-family="Helvetica, Arial, sans-serif" text-anchor="start" xml:space="preserve" stroke="#000000" transform="rotate(-1 1081.6718750000077,659.8359374999948) ">309</text>
  <text style="cursor: move;" fill="#000000" stroke-width="0" stroke-opacity="null" x="939.995728" y="668.243166" id="svg_157" font-size="24" font-family="Helvetica, Arial, sans-serif" text-anchor="start" xml:space="preserve" stroke="#000000" transform="rotate(-1 959.1093750000066,659.8359374999989) ">311</text>
  <text style="cursor: move;" fill="#000000" stroke-width="0" stroke-opacity="null" x="859.995117" y="668.243166" id="svg_158" font-size="24" font-family="Helvetica, Arial, sans-serif" text-anchor="start" xml:space="preserve" stroke="#000000" transform="rotate(-1 880.0000000000117,659.8359375000034) ">313</text>
  <text style="cursor: move;" fill="#000000" stroke-width="0" stroke-opacity="null" x="779.994507" y="668.243166" id="svg_159" font-size="24" font-family="Helvetica, Arial, sans-serif" text-anchor="start" xml:space="preserve" stroke="#000000" transform="rotate(-1 800.0000000000117,659.8359375000019) ">315</text>
  <text style="cursor: move;" fill="#000000" stroke-width="0" stroke-opacity="null" x="659.993591" y="668.243166" id="svg_160" font-size="24" font-family="Helvetica, Arial, sans-serif" text-anchor="start" xml:space="preserve" stroke="#000000">317</text>
  <text style="cursor: move;" fill="#000000" stroke-width="0" stroke-opacity="null" x="581.65966" y="668.243166" id="svg_161" font-size="24" font-family="Helvetica, Arial, sans-serif" text-anchor="start" xml:space="preserve" stroke="#000000">319</text>
  <text style="cursor: move;" fill="#000000" stroke-width="0" stroke-opacity="null" x="479.992218" y="668.243166" id="svg_162" font-size="24" font-family="Helvetica, Arial, sans-serif" text-anchor="start" xml:space="preserve" stroke="#000000">321</text>
  <text style="cursor: move;" fill="#000000" stroke-width="0" stroke-opacity="null" x="363.324661" y="668.243166" id="svg_163" font-size="24" font-family="Helvetica, Arial, sans-serif" text-anchor="start" xml:space="preserve" stroke="#000000">323</text>
  <text style="cursor: move;" fill="#000000" stroke-width="0" stroke-opacity="null" x="259.99054" y="668.243166" id="svg_164" font-size="24" font-family="Helvetica, Arial, sans-serif" text-anchor="start" xml:space="preserve" stroke="#000000">325</text>
  <text style="cursor: move;" fill="#000000" stroke-width="0" stroke-opacity="null" x="201.656761" y="668.243166" id="svg_165" font-size="22" font-family="Helvetica, Arial, sans-serif" text-anchor="start" xml:space="preserve" stroke="#000000">327</text>
  <line fill="none" stroke="#000000" stroke-width="2" stroke-opacity="null" fill-opacity="null" x1="210" y1="570" x2="280" y2="570" id="svg_166" stroke-linejoin="null" stroke-linecap="null"/>
  <text fill="#000000" stroke="#000000" stroke-width="0" stroke-opacity="null" fill-opacity="null" x="566.67099" y="258.240038" id="svg_167" font-size="22" font-family="Helvetica, Arial, sans-serif" text-anchor="start" xml:space="preserve">卫生间</text>
  <text fill="#000000" stroke="#000000" stroke-width="0" stroke-opacity="null" fill-opacity="null" x="1146.675415" y="258.240038" id="svg_168" font-size="22" font-family="Helvetica, Arial, sans-serif" text-anchor="start" xml:space="preserve">卫生间</text>
  <text fill="#000000" stroke="#000000" stroke-width="0" stroke-opacity="null" fill-opacity="null" x="1046.674652" y="564.909044" id="svg_169" font-size="22" font-family="Helvetica, Arial, sans-serif" text-anchor="start" xml:space="preserve">卫生间</text>
  <text fill="#000000" stroke="#000000" stroke-width="0" stroke-opacity="null" fill-opacity="null" x="213.334961" y="576.5758" id="svg_170" font-size="22" font-family="Helvetica, Arial, sans-serif" text-anchor="start" xml:space="preserve">卫生间</text>
  <path fill="#a5a5a5" stroke="#000000" stroke-width="2" stroke-opacity="null" fill-opacity="null" opacity="0.5" d="m190.64134,617.55296" id="svg_173"/>
  <path fill="#a5a5a5" stroke="#a5a5a5" stroke-width="2" stroke-opacity="null" fill-opacity="null" id="svg_185"/>
  <ellipse fill="#ff0000" stroke="#ff0000" stroke-width="2" cx="739.995117" cy="580.998598" id="svg_189" rx="5.833378" ry="6"/>
  <rect stroke="#000000" stroke-linejoin="null" stroke-linecap="null" fill="#a5a5a5" stroke-width="2" x="640.461931" y="252.483615" width="66.034215" height="67.228079" id="svg_1"/>
  <rect stroke="#a5a5a5" fill="#a5a5a5" stroke-width="2" x="637.285233" y="286.95066" width="7.65154" height="25.065313" id="svg_18"/>
  <rect stroke="#000000" stroke-linejoin="null" stroke-linecap="null" fill="#a5a5a5" stroke-width="2" x="706.51419" y="280.778389" width="137.718937" height="39.005678" id="svg_39"/>
  <rect stroke="#000000" stroke-linejoin="null" stroke-linecap="null" fill="#a5a5a5" stroke-width="2" x="842.787859" y="252.483616" width="88.514875" height="114.514996" id="svg_92"/>
  <rect stroke="#000000" stroke-linejoin="null" stroke-linecap="null" fill="#a5a5a5" stroke-width="2" x="931.320785" y="280.778389" width="143.145313" height="39.005678" id="svg_134"/>
  <rect stroke="#000000" stroke-linejoin="null" stroke-linecap="null" fill="#a5a5a5" stroke-width="2" x="1074.571255" y="252.483615" width="65.259018" height="67.228079" id="svg_171"/>
  <rect stroke="#000000" stroke-linejoin="null" stroke-linecap="null" fill="#70ad47" stroke-width="2" x="867.584048" y="198.995146" width="39.677589" height="81.181598" id="svg_172"/>
  <ellipse fill="#ff0000" stroke="#ff0000" stroke-width="2" cx="887.432265" cy="281.147417" id="svg_174" rx="5.833378" ry="6"/>
  <rect stroke="#000000" stroke-linejoin="null" stroke-linecap="null" fill="#a5a5a5" stroke-width="2" x="811.004826" y="367.212498" width="154.406441" height="136.995622" id="svg_175"/>
  <rect stroke="#000000" stroke-linejoin="null" stroke-linecap="null" fill="#ffffff" stroke-width="2" x="846.663815" y="403.646669" width="83.088485" height="64.127281" id="svg_176"/>
  <rect stroke="#000000" stroke-linejoin="null" stroke-linecap="null" fill="#a5a5a5" stroke-width="2" x="842.787859" y="504.422057" width="88.514875" height="55.600158" id="svg_177"/>
  <rect stroke="#a5a5a5" fill="#a5a5a5" stroke-width="2" x="700.076096" y="282.915318" width="16.95387" height="35" id="svg_182"/>
  <rect stroke="#a5a5a5" fill="#a5a5a5" stroke-width="2" x="836.510453" y="282.915318" width="16.95387" height="35" id="svg_183"/>
  <rect stroke="#a5a5a5" fill="#a5a5a5" stroke-width="2" x="923.332314" y="282.915318" width="16.95387" height="35" id="svg_186"/>
  <rect stroke="#a5a5a5" fill="#a5a5a5" stroke-width="2" x="1072.169793" y="282.915318" width="16.95387" height="35" id="svg_190"/>
  <rect stroke="#a5a5a5" fill="#a5a5a5" stroke-width="2" x="876.645533" y="545.706498" width="24.705826" height="35" id="svg_192"/>
  <rect stroke="#a5a5a5" fill="#a5a5a5" stroke-width="2" x="845.037548" y="350.957432" width="84" height="35" id="svg_193"/>
  <rect stroke="#a5a5a5" fill="#a5a5a5" stroke-width="2" x="845.037548" y="479.988365" width="84" height="35" id="svg_195"/>
  <rect stroke="#a5a5a5" fill="#a5a5a5" stroke-width="2" x="1132.832825" y="287.349884" width="16.95387" height="24.796202" id="svg_199"/>
 </g>
</svg>