<svg width="1919.9989096015526" height="1079.9993866508734" xmlns="http://www.w3.org/2000/svg">
 <!-- Created with Method Draw - http://github.com/duopixel/Method-Draw/ -->
 <g>
  <title>background</title>
  <rect height="1082" width="1922" y="-1" x="-1" fill="#fff" id="canvas_background"/>
  <g y="0" x="0" height="100%" width="100%" display="none" overflow="visible" id="canvasGrid">
   <rect height="100%" width="100%" y="0" x="0" stroke-width="0" fill="url(#gridpattern)"/>
  </g>
 </g>
 <g>
  <title>Layer 1</title>
  <path d="m1549.577148,410.062469l28.930298,1.25946l0,298.743011l-28.930908,0l0.00061,-300.002472z" stroke-width="2" stroke-opacity="null" stroke="#a5a5a5" fill-opacity="null" fill="#a5a5a5" id="svg_115"/>
  <path d="m1308.540039,381.407013l201.01001,0l-0.51001,-30.654022l40.709961,0.503021l-1.01001,-50.753998l30.150024,1.004974l0,109.548004l-30.650024,-1.005005l-239.699951,0l0,-28.642975z" stroke-width="2" stroke="#a5a5a5" fill="#a5a5a5" id="svg_114"/>
  <path d="m1119.095459,681.407104l119.094482,-1.005676l-0.502563,29.648254l-119.095337,0.502502l0.503418,-29.145081z" stroke-width="2" stroke="#a5a5a5" fill="#a5a5a5" id="svg_113"/>
  <path d="m1210.050293,410.552765l28.139648,-0.000336l0,269.848999l-29.145752,0.502563l1.006104,-270.351227z" stroke-width="2" stroke="#a5a5a5" fill="#a5a5a5" id="svg_112"/>
  <path d="m1119.158936,381.775726l89.719604,-0.467316l0,-49.532715l70.093384,0l-0.93457,29.43927l29.906616,0.467285l0,20.093445l0.467285,28.037384l-70.560791,0l-119.626099,0l0.93457,-28.037354z" stroke-width="2" stroke="#a5a5a5" fill="#a5a5a5" id="svg_111"/>
  <path d="m1089.719727,440.186951l-0.000122,240.18689l28.972046,-0.467285l-0.467285,-239.719635l-28.504639,0.000031z" stroke-width="2" stroke-opacity="null" stroke="#a5a5a5" fill-opacity="null" fill="#a5a5a5" id="svg_110"/>
  <path d="m1059.375,408.928558l0.000977,29.911133l29.910767,0.446411l29.017822,0.446442l0,-29.910736l-58.929565,-0.89325z" stroke-width="2" stroke="#a5a5a5" fill="#a5a5a5" id="svg_109"/>
  <path d="m1061.160645,301.339294l57.143921,-0.446167l0,79.464355l0,29.910736l-59.375,-2.232147l2.231079,-106.696777z" stroke-width="2" stroke="#a5a5a5" fill="#a5a5a5" id="svg_107"/>
  <path d="m720.512817,301.709412l339.74353,-0.854706l-0.854614,38.888885l-270.512817,0l-0.427368,40.170929l-39.743591,-0.427338l-28.205139,0l-0.427368,-39.316254l0.427368,-38.461517z" stroke-width="2" stroke="#a5a5a5" fill="#a5a5a5" id="svg_106"/>
  <path d="m438.888885,300.854706l281.196564,0l-0.854675,38.888885l-281.196594,0.427338l0.854706,-39.316223z" stroke-width="2" stroke="#a5a5a5" fill="#a5a5a5" id="svg_105"/>
  <path d="m719.230774,679.914551l29.487183,0l-0.427368,-300.000031l-28.205139,1.282074l-0.854675,298.717957z" stroke-width="2" stroke-opacity="null" stroke="#a5a5a5" fill-opacity="null" fill="#a5a5a5" id="svg_104"/>
  <path d="m478.242706,681.590027l180.753082,-0.000061l0,-30.543945l60.251099,-0.418396l0,30.125488l-41.004211,0l0.418396,29.707153l-204.602509,0.418396l4.184143,-29.288635z" stroke-width="2" stroke-opacity="null" stroke="#a5a5a5" fill-opacity="null" fill="#a5a5a5" id="svg_103"/>
  <path d="m410.388824,200.694458l28.47229,-0.000015l0,100.000015l0.694427,40.972198l0,309.72226l37.5,-0.694458l2.083344,29.861084l0.694427,29.861145l-70.833313,0l1.388824,-509.722229z" stroke-width="2" stroke="#a5a5a5" fill="#a5a5a5" id="svg_101"/>
  <path d="m201.18335,611.249939l28.333344,-1.249939l0,130.416626l120.833344,-0.416626l0.833313,-30l178.333374,0.833313l-0.416687,58.333313l-328.750015,0l0.833328,-157.916687z" stroke-width="2" stroke="#a5a5a5" fill="#a5a5a5" id="svg_100"/>
  <rect height="90" width="60" y="620.769" x="1579" stroke-width="2" stroke="#000" fill="#00b0f0" id="svg_7"/>
  <rect height="90" width="60" y="530.769" x="1579" stroke-width="2" stroke="#000" fill="#00b0f0" id="svg_8"/>
  <rect height="60" width="60" y="470.769" x="1579" stroke-width="2" stroke="#000" fill="#00b0f0" id="svg_9"/>
  <rect height="60" width="60" y="410.769" x="1579" stroke-width="2" stroke="#000" fill="#00b0f0" id="svg_10"/>
  <line y2="711" x2="1579" y1="711" x1="1549" stroke-width="2" stroke-opacity="null" stroke-linejoin="null" stroke-linecap="null" stroke="#000" fill-opacity="null" fill="none" id="svg_11"/>
  <rect height="60" width="60" y="410.769" x="1489" stroke-width="2" stroke-opacity="null" stroke="#000" fill-opacity="null" fill="none" id="svg_12"/>
  <rect height="90" width="60" y="470.769" x="1489" stroke-width="2" stroke="#000" fill="#00b0f0" id="svg_13"/>
  <rect height="90" width="60" y="560.769" x="1489" stroke-width="2" stroke="#000" fill="#00b0f0" id="svg_14"/>
  <rect height="30" width="60" y="650.769" x="1489" stroke-width="2" stroke-opacity="null" stroke="#000" fill-opacity="null" fill="none" id="svg_15"/>
  <rect height="30" width="60" y="680.769" x="1489" stroke-width="2" stroke="#000" fill="#70ad47" id="svg_16"/>
  <rect height="80" width="60" y="300.769" x="1429" stroke-width="2" stroke="#000" fill="#00b0f0" id="svg_18"/>
  <rect height="80" width="60" y="300.769" x="1369" stroke-width="2" stroke="#000" fill="#00b0f0" id="svg_19"/>
  <rect height="80" width="60" y="300.769" x="1309" stroke-width="2" stroke="#000" fill="#00b0f0" id="svg_20"/>
  <rect height="30" width="20" y="350.769" x="1489" stroke-width="2" stroke-opacity="null" stroke="#000" fill-opacity="null" fill="none" id="svg_21"/>
  <rect height="50" width="60" y="300.769" x="1489" stroke-width="2" stroke-opacity="null" stroke="#000" fill-opacity="null" fill="none" id="svg_22"/>
  <rect height="30" width="60" y="300.769" x="1579" stroke-width="2" stroke="#000" fill="#70ad47" id="svg_23"/>
  <line y2="411" x2="1579" y1="331" x1="1579" stroke-width="2" stroke-opacity="null" stroke-linejoin="null" stroke-linecap="null" stroke="#000" fill-opacity="null" fill="none" id="svg_25"/>
  <line y2="411" x2="1489" y1="411" x1="1309" stroke-width="2" stroke-opacity="null" stroke-linejoin="null" stroke-linecap="null" stroke="#000" fill-opacity="null" fill="none" id="svg_26"/>
  <rect height="60" width="70" y="410.769" x="1239" stroke-width="2" stroke-opacity="null" stroke="#000" fill-opacity="null" fill="none" id="svg_27"/>
  <rect height="90" width="70" y="470.769" x="1239" stroke-width="2" stroke="#000" fill="#00b0f0" id="svg_28"/>
  <rect height="90" width="70" y="560.769" x="1239" stroke-width="2" stroke="#000" fill="#00b0f0" id="svg_29"/>
  <rect height="30" width="70" y="650.769" x="1239" stroke-width="2" stroke-opacity="null" stroke="#000" fill-opacity="null" fill="none" id="svg_30"/>
  <rect height="30" width="70" y="680.77" x="1239" stroke-width="2" stroke="#000" fill="#70ad47" id="svg_31"/>
  <line y2="711" x2="1239" y1="711" x1="1119" stroke-width="2" stroke-opacity="null" stroke-linejoin="null" stroke-linecap="null" stroke="#000" fill-opacity="null" fill="none" id="svg_32"/>
  <rect height="100" width="90" y="581" x="1119" stroke-width="2" stroke="#000" fill="#00b0f0" id="svg_33"/>
  <rect height="170" width="90" y="411" x="1119" stroke-width="2" stroke-opacity="null" stroke="#000" fill-opacity="null" fill="none" id="svg_34"/>
  <rect height="30" width="70" y="680.77" x="1049" stroke-width="2" stroke-opacity="null" stroke="#000" fill-opacity="null" fill="none" id="svg_35"/>
  <rect height="80" width="90" y="301" x="1119" stroke-width="2" stroke="#000" fill="#00b0f0" id="svg_36"/>
  <rect height="30" width="70" y="301" x="1209" stroke-width="2" stroke="#000" fill="#70ad47" id="svg_37"/>
  <rect height="30" width="70" y="650.77" x="1019" stroke-width="2" stroke="#000" fill="#70ad47" id="svg_38"/>
  <rect height="90" width="70" y="560.77" x="1019" stroke-width="2" stroke="#000" fill="#00b0f0" id="svg_39"/>
  <rect height="90" width="70" y="470.77" x="1019" stroke-width="2" stroke="#000" fill="#00b0f0" id="svg_40"/>
  <rect height="30" width="70" y="440.77" x="1019" stroke-width="2" stroke="#000" fill="#70ad47" id="svg_41"/>
  <rect height="30" width="40.3334" y="410.77" x="1019" stroke-width="2" stroke-opacity="null" stroke="#000" fill-opacity="null" fill="none" id="svg_42"/>
  <rect height="70" width="30" y="340.77" x="1029" stroke-width="2" stroke-opacity="null" stroke="#000" fill-opacity="null" fill="none" id="svg_43"/>
  <rect height="70" width="40" y="340.77" x="989" stroke-width="2" stroke="#000" fill="#00b0f0" id="svg_44"/>
  <rect height="70" width="60" y="340.769" x="929" stroke-width="2" stroke="#000" fill="#00b0f0" id="svg_45"/>
  <rect height="70" width="60" y="340.769" x="869" stroke-width="2" stroke="#000" fill="#00b0f0" id="svg_46"/>
  <rect height="70" width="60" y="340.769" x="809" stroke-width="2" stroke="#000" fill="#00b0f0" id="svg_47"/>
  <rect height="40" width="20" y="340.769" x="789" stroke-width="2" stroke-opacity="null" stroke="#000" fill-opacity="null" fill="none" id="svg_48"/>
  <rect height="90" width="60" y="380.769" x="749" stroke-width="2" stroke="#000" fill="#00b0f0" id="svg_49"/>
  <rect height="90" width="60" y="470.769" x="749" stroke-width="2" stroke="#000" fill="#00b0f0" id="svg_50"/>
  <rect height="90" width="60" y="560.769" x="749" stroke-width="2" stroke="#000" fill="#00b0f0" id="svg_51"/>
  <rect height="30" width="60" y="650.77" x="749" stroke-width="2" stroke="#000" fill="#70ad47" id="svg_52"/>
  <line y2="680.517" x2="1019" y1="681" x1="809" stroke-width="2" stroke-opacity="null" stroke-linejoin="null" stroke-linecap="null" stroke="#000" fill-opacity="null" fill="none" id="svg_53"/>
  <rect height="30" width="60" y="340.77" x="659" stroke-width="2" stroke="#000" fill="#70ad47" id="svg_54"/>
  <rect height="60" width="60" y="370.77" x="659" stroke-width="2" stroke-opacity="null" stroke="#000" fill-opacity="null" fill="none" id="svg_55"/>
  <rect height="90" width="60" y="430.769" x="659" stroke-width="2" stroke="#000" fill="#00b0f0" id="svg_56"/>
  <rect height="90" width="60" y="520.769" x="659" stroke-width="2" stroke="#000" fill="#00b0f0" id="svg_57"/>
  <rect height="40" width="60" y="610.77" x="659" stroke-width="2" stroke-opacity="null" stroke="#000" fill-opacity="null" fill="none" id="svg_58"/>
  <rect height="30" width="70" y="680.77" x="679" stroke-width="2" stroke-opacity="null" stroke="#000" fill-opacity="null" fill="none" id="svg_59"/>
  <rect height="70" width="80" y="610.77" x="579" stroke-width="2" stroke="#000" fill="#00b0f0" id="svg_60"/>
  <rect height="70" width="80" y="610.77" x="498.533" stroke-width="2" stroke="#000" fill="#00b0f0" id="svg_61"/>
  <rect height="40" width="60" y="610.303" x="439.467" stroke-width="2" stroke-opacity="null" stroke="#000" fill-opacity="null" fill="none" id="svg_62"/>
  <rect height="90" width="60" y="430.769" x="439" stroke-width="2" stroke="#000" fill="#00b0f0" id="svg_63"/>
  <rect height="90" width="60" y="521" x="439" stroke-width="2" stroke="#000" fill="#00b0f0" id="svg_64"/>
  <rect height="90" width="60" y="341" x="439" stroke-width="2" stroke="#000" fill="#00b0f0" id="svg_65"/>
  <line y2="341" x2="659" y1="341" x1="499" stroke-width="2" stroke-opacity="null" stroke-linejoin="null" stroke-linecap="null" stroke="#000" fill-opacity="null" fill="none" id="svg_66"/>
  <rect height="70" width="60" y="230.769" x="439" stroke-width="2" stroke="#000" fill="#00b0f0" id="svg_67"/>
  <rect height="30" width="60" y="200.77" x="439" stroke-width="2" stroke="#000" fill="#70ad47" id="svg_68"/>
  <rect height="100" width="100" y="200.769" x="539" stroke-width="2" stroke-opacity="null" stroke="#000" fill="#00b0f0" id="svg_69"/>
  <rect height="30" width="20" y="650.77" x="479" stroke-width="2" stroke-opacity="null" stroke="#000" fill-opacity="null" fill="none" id="svg_71"/>
  <rect height="60" width="60" y="301" x="349" stroke-width="2" stroke-opacity="null" stroke="#000" fill-opacity="null" fill="none" id="svg_72"/>
  <rect height="30" width="60" y="360.77" x="349" stroke-width="2" stroke="#000" fill="#70ad47" id="svg_73"/>
  <rect height="80" width="60" y="391" x="349" stroke-width="2" stroke="#000" fill="#00b0f0" id="svg_74"/>
  <rect height="90" width="60" y="470.769" x="349" stroke-width="2" stroke="#000" fill="#00b0f0" id="svg_75"/>
  <rect height="90" width="60" y="561" x="349" stroke-width="2" stroke="#000" fill="#00b0f0" id="svg_76"/>
  <rect height="30" width="60" y="650.77" x="349" stroke-width="2" stroke="#000" fill="#70ad47" id="svg_77"/>
  <rect height="30" width="60" y="680.77" x="349" stroke-width="2" stroke-opacity="null" stroke="#000" fill-opacity="null" fill="none" id="svg_78"/>
  <line y2="711" x2="439" y1="711" x1="409" stroke-width="2" stroke-opacity="null" stroke-linejoin="null" stroke-linecap="null" stroke="#000" fill-opacity="null" fill="none" id="svg_79"/>
  <line y2="711" x2="679" y1="711" x1="479" stroke-width="2" stroke-opacity="null" stroke-linejoin="null" stroke-linecap="null" stroke="#000" fill-opacity="null" fill="none" id="svg_80"/>
  <rect height="60" width="30" y="711" x="529" stroke-width="2" stroke="#000" fill="#70ad47" id="svg_81"/>
  <rect height="130" width="120" y="611" x="229" stroke-width="2" stroke="#000" fill="#00b0f0" id="svg_82"/>
  <line y2="771" x2="199" y1="611" x1="199" stroke-width="2" stroke-opacity="null" stroke-linejoin="null" stroke-linecap="null" stroke="#000" fill-opacity="null" fill="none" id="svg_83"/>
  <line y2="771" x2="559.167" y1="771" x1="199" stroke-width="2" stroke-opacity="null" stroke-linejoin="null" stroke-linecap="null" stroke="#000" fill-opacity="null" fill="none" id="svg_84"/>
  <line y2="301" x2="1119.17" y1="301" x1="637.5" stroke-width="2" stroke-opacity="null" stroke-linejoin="null" stroke-linecap="null" stroke="#000" fill-opacity="null" fill="none" id="svg_85"/>
  <line y2="301" x2="1579" y1="301" x1="1549" stroke-width="2" stroke-opacity="null" stroke-linejoin="null" stroke-linecap="null" stroke="#000" fill-opacity="null" fill="none" id="svg_86"/>
  <line y2="611" x2="229.167" y1="611" x1="199" stroke-width="2" stroke-opacity="null" stroke-linejoin="null" stroke-linecap="null" stroke="#000" fill-opacity="null" fill="none" id="svg_87"/>
  <line y2="201.667" x2="409" y1="302" x1="409" stroke-width="2" stroke-opacity="null" stroke-linejoin="null" stroke-linecap="null" stroke="#000" fill-opacity="null" fill="none" id="svg_89"/>
  <line y2="201" x2="439" y1="201" x1="409" stroke-width="2" stroke-opacity="null" stroke-linejoin="null" stroke-linecap="null" stroke="#000" fill-opacity="null" fill="none" id="svg_90"/>
  <line y2="301" x2="539.167" y1="301" x1="499" stroke-width="2" stroke-opacity="null" stroke-linejoin="null" stroke-linecap="null" stroke="#000" fill-opacity="null" fill="none" id="svg_91"/>
  <rect height="30" width="30" y="301" x="1279" stroke-width="2" stroke-opacity="null" stroke="#000" fill-opacity="null" fill="none" id="svg_92"/>
  <rect height="30" width="30" y="331" x="1279" stroke-width="2" stroke-opacity="null" stroke="#000" fill="#7030a0" id="svg_93"/>
  <path d="m1560,621.818176" stroke-width="2" stroke-opacity="null" stroke="#000" fill="#a5a5a5" opacity="0.5" id="svg_94"/>
  <path d="m200,612.083252" stroke-width="2" stroke-opacity="null" stroke="#000" fill-opacity="0" fill="#000000" opacity="0.5" id="svg_99"/>
  <path d="m1059.821411,408.928558" stroke-width="2" stroke="#a5a5a5" fill="#a5a5a5" opacity="0.5" id="svg_108"/>
  <ellipse ry="6" rx="6" cy="300" cx="549" stroke-width="2" stroke="#000000" fill="#000000" id="svg_116"/>
  <ellipse ry="6" rx="6" cy="300" cx="629" stroke-width="2" stroke="#000000" fill="#000000" id="svg_117"/>
  <ellipse ry="6" rx="6" cy="240" cx="439" stroke-width="2" stroke="#000000" fill="#000000" id="svg_118"/>
  <ellipse ry="6" rx="6" cy="291" cx="439" stroke-width="2" stroke="#000000" fill="#000000" id="svg_119"/>
  <ellipse ry="6" rx="6" cy="441" cx="439" stroke-width="2" stroke="#000000" fill="#000000" id="svg_120"/>
  <ellipse ry="6" rx="6" cy="510" cx="439" stroke-width="2" stroke="#000000" fill="#000000" id="svg_121"/>
  <ellipse ry="6" rx="6" cy="421" cx="439" stroke-width="2" stroke="#000000" fill="#000000" id="svg_122"/>
  <ellipse ry="6" rx="6" cy="351" cx="439" stroke-width="2" stroke="#000000" fill="#000000" id="svg_123"/>
  <ellipse ry="6" rx="6" cy="601" cx="439" stroke-width="2" stroke="#000000" fill="#000000" id="svg_124"/>
  <ellipse ry="6" rx="6" cy="531" cx="439" stroke-width="2" stroke="#000000" fill="#000000" id="svg_125"/>
  <ellipse ry="6" rx="6" cy="640" cx="409" stroke-width="2" stroke="#000000" fill="#000000" id="svg_126"/>
  <ellipse ry="6" rx="6" cy="572" cx="409" stroke-width="2" stroke="#000000" fill="#000000" id="svg_127"/>
  <ellipse ry="6" rx="6" cy="401" cx="409" stroke-width="2" stroke="#000000" fill="#000000" id="svg_128"/>
  <ellipse ry="6" rx="6" cy="460" cx="409" stroke-width="2" stroke="#000000" fill="#000000" id="svg_129"/>
  <ellipse ry="6" rx="6" cy="482" cx="409" stroke-width="2" stroke="#000000" fill="#000000" id="svg_130"/>
  <ellipse ry="6" rx="6" cy="550" cx="409" stroke-width="2" stroke="#000000" fill="#000000" id="svg_131"/>
  <ellipse ry="6" rx="6" cy="731" cx="229" stroke-width="2" stroke="#000000" fill="#000000" id="svg_132"/>
  <ellipse ry="6" rx="6" cy="621" cx="229" stroke-width="2" stroke="#000000" fill="#000000" id="svg_133"/>
  <ellipse ry="6" rx="6" cy="731" cx="349" stroke-width="2" stroke="#000000" fill="#000000" id="svg_134"/>
  <ellipse ry="6" rx="6" cy="680" cx="648" stroke-width="2" stroke="#000000" fill="#000000" id="svg_135"/>
  <ellipse ry="6" rx="6" cy="680" cx="590" stroke-width="2" stroke="#000000" fill="#000000" id="svg_136"/>
  <ellipse ry="6" rx="6" cy="680" cx="567" stroke-width="2" stroke="#000000" fill="#000000" id="svg_137"/>
  <ellipse ry="6" rx="6" cy="680" cx="510" stroke-width="2" stroke="#000000" fill="#000000" id="svg_138"/>
  <ellipse ry="6" rx="6" cy="572" cx="748" stroke-width="2" stroke="#000000" fill="#000000" id="svg_139"/>
  <ellipse ry="6" rx="6" cy="640" cx="748" stroke-width="2" stroke="#000000" fill="#000000" id="svg_140"/>
  <ellipse ry="6" rx="6" cy="391" cx="748" stroke-width="2" stroke="#000000" fill="#000000" id="svg_141"/>
  <ellipse ry="6" rx="6" cy="460" cx="748" stroke-width="2" stroke="#000000" fill="#000000" id="svg_142"/>
  <ellipse ry="6" rx="6" cy="482" cx="748" stroke-width="2" stroke="#000000" fill="#000000" id="svg_143"/>
  <ellipse ry="6" rx="6" cy="550" cx="748" stroke-width="2" stroke="#000000" fill="#000000" id="svg_144"/>
  <ellipse ry="6" rx="6" cy="601" cx="718" stroke-width="2" stroke="#000000" fill="#000000" id="svg_145"/>
  <ellipse ry="6" rx="6" cy="531" cx="718" stroke-width="2" stroke="#000000" fill="#000000" id="svg_146"/>
  <ellipse ry="6" rx="6" cy="511" cx="718" stroke-width="2" stroke="#000000" fill="#000000" id="svg_147"/>
  <ellipse ry="6" rx="6" cy="441" cx="718" stroke-width="2" stroke="#000000" fill="#000000" id="svg_148"/>
  <ellipse ry="6" rx="6" cy="341" cx="939" stroke-width="2" stroke="#000000" fill="#000000" id="svg_149"/>
  <ellipse ry="6" rx="6" cy="341" cx="919" stroke-width="2" stroke="#000000" fill="#000000" id="svg_150"/>
  <ellipse ry="6" rx="6" cy="341" cx="858" stroke-width="2" stroke="#000000" fill="#000000" id="svg_151"/>
  <ellipse ry="6" rx="6" cy="341" cx="880" stroke-width="2" stroke="#000000" fill="#000000" id="svg_152"/>
  <ellipse ry="6" rx="6" cy="341" cx="819" stroke-width="2" stroke="#000000" fill="#000000" id="svg_153"/>
  <ellipse ry="6" rx="6" cy="341" cx="999" stroke-width="2" stroke="#000000" fill="#000000" id="svg_154"/>
  <ellipse ry="6" rx="6" cy="341" cx="978" stroke-width="2" stroke="#000000" fill="#000000" id="svg_155"/>
  <ellipse ry="6" rx="6" cy="381" cx="1198" stroke-width="2" stroke="#000000" fill="#000000" id="svg_156"/>
  <ellipse ry="6" rx="6" cy="381" cx="1130" stroke-width="2" stroke="#000000" fill="#000000" id="svg_157"/>
  <ellipse ry="6" rx="6" cy="550" cx="1090" stroke-width="2" stroke="#000000" fill="#000000" id="svg_158"/>
  <ellipse ry="6" rx="6" cy="482" cx="1090" stroke-width="2" stroke="#000000" fill="#000000" id="svg_159"/>
  <ellipse ry="6" rx="6" cy="640" cx="1090" stroke-width="2" stroke="#000000" fill="#000000" id="svg_160"/>
  <ellipse ry="6" rx="6" cy="572" cx="1090" stroke-width="2" stroke="#000000" fill="#000000" id="svg_161"/>
  <ellipse ry="6" rx="6" cy="679.533" cx="1198" stroke-width="2" stroke="#000000" fill="#000000" id="svg_162"/>
  <ellipse ry="6" rx="6" cy="680" cx="1130" stroke-width="2" stroke="#000000" fill="#000000" id="svg_163"/>
  <ellipse ry="6" rx="6" cy="571" cx="1238.93" stroke-width="2" stroke="#000000" fill="#000000" id="svg_164"/>
  <ellipse ry="6" rx="6" cy="639.533" cx="1238" stroke-width="2" stroke="#000000" fill="#000000" id="svg_165"/>
  <ellipse ry="6" rx="6" cy="482" cx="1238" stroke-width="2" stroke="#000000" fill="#000000" id="svg_166"/>
  <ellipse ry="6" rx="6" cy="549" cx="1238" stroke-width="2" stroke="#000000" fill="#000000" id="svg_167"/>
  <ellipse ry="6" rx="6" cy="381" cx="1359" stroke-width="2" stroke="#000000" fill="#000000" id="svg_168"/>
  <ellipse ry="6" rx="6" cy="381" cx="1320" stroke-width="2" stroke="#000000" fill="#000000" id="svg_169"/>
  <ellipse ry="6" rx="6" cy="381" cx="1477" stroke-width="2" stroke="#000000" fill="#000000" id="svg_170"/>
  <ellipse ry="6" rx="6" cy="381" cx="1441" stroke-width="2" stroke="#000000" fill="#000000" id="svg_171"/>
  <ellipse ry="6" rx="6" cy="381" cx="1418" stroke-width="2" stroke="#000000" fill="#000000" id="svg_172"/>
  <ellipse ry="6" rx="6" cy="381" cx="1380" stroke-width="2" stroke="#000000" fill="#000000" id="svg_173"/>
  <ellipse ry="6" rx="6" cy="482" cx="1548" stroke-width="2" stroke="#000000" fill="#000000" id="svg_174"/>
  <ellipse ry="6" rx="6" cy="549" cx="1548" stroke-width="2" stroke="#000000" fill="#000000" id="svg_175"/>
  <ellipse ry="6" rx="6" cy="571" cx="1548.93" stroke-width="2" stroke="#000000" fill="#000000" id="svg_176"/>
  <ellipse ry="6" rx="6" cy="639.533" cx="1548" stroke-width="2" stroke="#000000" fill="#000000" id="svg_177"/>
  <ellipse ry="6" rx="6" cy="542" cx="1578" stroke-width="2" stroke="#000000" fill="#000000" id="svg_178"/>
  <ellipse ry="6" rx="6" cy="609.533" cx="1578" stroke-width="2" stroke="#000000" fill="#000000" id="svg_179"/>
  <ellipse ry="6" rx="6" cy="632" cx="1578" stroke-width="2" stroke="#000000" fill="#000000" id="svg_180"/>
  <ellipse ry="6" rx="6" cy="699.533" cx="1578" stroke-width="2" stroke="#000000" fill="#000000" id="svg_181"/>
  <ellipse ry="6" rx="6" cy="422" cx="1578" stroke-width="2" stroke="#000000" fill="#000000" id="svg_182"/>
  <ellipse ry="6" rx="6" cy="460" cx="1578" stroke-width="2" stroke="#000000" fill="#000000" id="svg_183"/>
  <ellipse ry="6" rx="6" cy="482" cx="1578" stroke-width="2" stroke="#000000" fill="#000000" id="svg_184"/>
  <ellipse ry="6" rx="6" cy="519" cx="1578" stroke-width="2" stroke="#000000" fill="#000000" id="svg_185"/>
  <ellipse ry="6" rx="6" cy="216" cx="439" stroke-width="2" stroke="#ff0000" fill="#ff0000" id="svg_186"/>
  <ellipse ry="6" rx="6" cy="376" cx="409" stroke-width="2" stroke="#ff0000" fill="#ff0000" id="svg_187"/>
  <ellipse ry="6" rx="6" cy="666" cx="409" stroke-width="2" stroke="#ff0000" fill="#ff0000" id="svg_188"/>
  <ellipse ry="6" rx="6" cy="356" cx="719" stroke-width="2" stroke="#ff0000" fill="#ff0000" id="svg_189"/>
  <ellipse ry="6" rx="6" cy="666" cx="749" stroke-width="2" stroke="#ff0000" fill="#ff0000" id="svg_190"/>
  <ellipse ry="6" rx="6" cy="440" cx="1075" stroke-width="2" stroke="#ff0000" fill="#ff0000" id="svg_191"/>
  <ellipse ry="6" rx="6" cy="666" cx="1089" stroke-width="2" stroke="#ff0000" fill="#ff0000" id="svg_192"/>
  <ellipse ry="6" rx="6" cy="330" cx="1265" stroke-width="2" stroke="#ff0000" fill="#ff0000" id="svg_193"/>
  <ellipse ry="6" rx="6" cy="696" cx="1239" stroke-width="2" stroke="#ff0000" fill="#ff0000" id="svg_194"/>
  <ellipse ry="6" rx="6" cy="316" cx="1580" stroke-width="2" stroke="#ff0000" fill="#ff0000" id="svg_195"/>
  <ellipse ry="6" rx="6" cy="696" cx="1549" stroke-width="2" stroke="#ff0000" fill="#ff0000" id="svg_196"/>
  <ellipse ry="6" rx="6" cy="740" cx="529" stroke-width="2" stroke="#ff0000" fill="#ff0000" id="svg_197"/>
  <ellipse ry="6" rx="6" cy="610.047" cx="212.616" stroke-width="2" stroke="#ffff00" fill="#ffff00" id="svg_198"/>
  <ellipse rx="0.233645" cy="685.047" cx="141.355" stroke-width="2" stroke="#ffff00" fill="#ffff00" id="svg_199"/>
  <ellipse ry="6" rx="6" cy="696" cx="1120" stroke-width="2" stroke="#ffff00" fill="#ffff00" id="svg_200"/>
  <text xml:space="preserve" y="259.2754" x="566.5218" text-anchor="start" stroke-width="0" stroke-opacity="null" stroke="#ffff00" fill-opacity="null" fill="#000000" style="cursor: move; pointer-events: inherit;" font-size="24px" font-family="Helvetica,Arial,sans-serif" id="svg_202">336</text>
  <text xml:space="preserve" y="485" x="669" text-anchor="start" stroke-width="0" stroke-opacity="null" stroke="#ffff00" fill-opacity="null" fill="#000000" style="cursor: move; pointer-events: inherit;" font-size="24px" font-family="Helvetica,Arial,sans-serif" id="svg_203">327</text>
  <text xml:space="preserve" y="576" x="449" text-anchor="start" stroke-width="0" stroke-opacity="null" stroke="#ffff00" fill-opacity="null" fill="#000000" style="cursor: move; pointer-events: inherit;" font-size="24px" font-family="Helvetica,Arial,sans-serif" id="svg_204">333</text>
  <text xml:space="preserve" y="522" x="358" text-anchor="start" stroke-width="0" stroke-opacity="null" stroke="#ffff00" fill-opacity="null" fill="#000000" style="cursor: move; pointer-events: inherit;" font-size="24px" font-family="Helvetica,Arial,sans-serif" id="svg_205">339</text>
  <text xml:space="preserve" y="484" x="450" text-anchor="start" stroke-width="0" stroke-opacity="null" stroke="#ffff00" fill-opacity="null" fill="#000000" style="cursor: move; pointer-events: inherit;" font-size="24px" font-family="Helvetica,Arial,sans-serif" id="svg_206">334</text>
  <text xml:space="preserve" y="440" x="360" text-anchor="start" stroke-width="0" stroke-opacity="null" stroke="#ffff00" fill-opacity="null" fill="#000000" style="cursor: move; pointer-events: inherit;" font-size="24px" font-family="Helvetica,Arial,sans-serif" id="svg_207">338</text>
  <text xml:space="preserve" y="395" x="450" text-anchor="start" stroke-width="0" stroke-opacity="null" stroke="#ffff00" fill-opacity="null" fill="#000000" style="cursor: move; pointer-events: inherit;" font-size="24px" font-family="Helvetica,Arial,sans-serif" id="svg_208">335</text>
  <text xml:space="preserve" y="276" x="451" transform="matrix(0.855253, 0, 0, 0.89498, 66.0797, 25.9567)" text-anchor="start" stroke-width="0" stroke-opacity="null" stroke="#ffff00" fill-opacity="null" fill="#000000" style="cursor: move; pointer-events: inherit;" font-size="24px" font-family="Helvetica,Arial,sans-serif" id="svg_209">337</text>
  <text xml:space="preserve" y="682" x="268" text-anchor="start" stroke-width="0" stroke-opacity="null" stroke="#ffff00" fill-opacity="null" fill="#000000" style="cursor: move; pointer-events: inherit;" font-size="24px" font-family="Helvetica,Arial,sans-serif" id="svg_210">341</text>
  <text xml:space="preserve" y="612" x="358" text-anchor="start" stroke-width="0" stroke-opacity="null" stroke="#ffff00" fill-opacity="null" fill="#000000" style="cursor: move; pointer-events: inherit;" font-size="24px" font-family="Helvetica,Arial,sans-serif" id="svg_211">340</text>
  <text xml:space="preserve" y="656" x="599" text-anchor="start" stroke-width="0" stroke-opacity="null" stroke="#ffff00" fill-opacity="null" fill="#000000" style="cursor: move; pointer-events: inherit;" font-size="24px" font-family="Helvetica,Arial,sans-serif" id="svg_212">330</text>
  <text xml:space="preserve" y="656" x="519" text-anchor="start" stroke-width="0" stroke-opacity="null" stroke="#ffff00" fill-opacity="null" fill="#000000" style="cursor: move; pointer-events: inherit;" font-size="24px" font-family="Helvetica,Arial,sans-serif" id="svg_213">331</text>
  <text xml:space="preserve" y="615" x="759" text-anchor="start" stroke-width="0" stroke-opacity="null" stroke="#ffff00" fill-opacity="null" fill="#000000" style="cursor: move; pointer-events: inherit;" font-size="24px" font-family="Helvetica,Arial,sans-serif" id="svg_214">326</text>
  <text xml:space="preserve" y="525" x="759" text-anchor="start" stroke-width="0" stroke-opacity="null" stroke="#ffff00" fill-opacity="null" fill="#000000" style="cursor: move; pointer-events: inherit;" font-size="24px" font-family="Helvetica,Arial,sans-serif" id="svg_215">325</text>
  <text xml:space="preserve" y="435" x="759" text-anchor="start" stroke-width="0" stroke-opacity="null" stroke="#ffff00" fill-opacity="null" fill="#000000" style="cursor: move; pointer-events: inherit;" font-size="24px" font-family="Helvetica,Arial,sans-serif" id="svg_216">324</text>
  <text xml:space="preserve" y="575" x="669" text-anchor="start" stroke-width="0" stroke-opacity="null" stroke="#ffff00" fill-opacity="null" fill="#000000" style="cursor: move; pointer-events: inherit;" font-size="24px" font-family="Helvetica,Arial,sans-serif" id="svg_217">328</text>
  <text xml:space="preserve" y="385" x="989" text-anchor="start" stroke-width="0" stroke-opacity="null" stroke="#ffff00" fill-opacity="null" fill="#000000" style="cursor: move; pointer-events: inherit;" font-size="24px" font-family="Helvetica,Arial,sans-serif" id="svg_218">320</text>
  <text xml:space="preserve" y="385" x="939" text-anchor="start" stroke-width="0" stroke-opacity="null" stroke="#ffff00" fill-opacity="null" fill="#000000" style="cursor: move; pointer-events: inherit;" font-size="24px" font-family="Helvetica,Arial,sans-serif" id="svg_219">321</text>
  <text xml:space="preserve" y="385" x="879" text-anchor="start" stroke-width="0" stroke-opacity="null" stroke="#ffff00" fill-opacity="null" fill="#000000" style="cursor: move; pointer-events: inherit;" font-size="24px" font-family="Helvetica,Arial,sans-serif" id="svg_220">322</text>
  <text xml:space="preserve" y="385" x="819" text-anchor="start" stroke-width="0" stroke-opacity="null" stroke="#ffff00" fill-opacity="null" fill="#000000" style="cursor: move; pointer-events: inherit;" font-size="24px" font-family="Helvetica,Arial,sans-serif" id="svg_221">323</text>
  <text xml:space="preserve" y="615" x="1034" text-anchor="start" stroke-width="0" stroke-opacity="null" stroke="#ffff00" fill-opacity="null" fill="#000000" style="cursor: move; pointer-events: inherit;" font-size="24px" font-family="Helvetica,Arial,sans-serif" id="svg_222">317</text>
  <text xml:space="preserve" y="525" x="1034" text-anchor="start" stroke-width="0" stroke-opacity="null" stroke="#ffff00" fill-opacity="null" fill="#000000" style="cursor: move; pointer-events: inherit;" font-size="24px" font-family="Helvetica,Arial,sans-serif" id="svg_223">318</text>
  <text xml:space="preserve" y="351" x="1145" text-anchor="start" stroke-width="0" stroke-opacity="null" stroke="#ffff00" fill-opacity="null" fill="#000000" style="cursor: move; pointer-events: inherit;" font-size="24px" font-family="Helvetica,Arial,sans-serif" id="svg_224">312</text>
  <text xml:space="preserve" y="351" x="1441" text-anchor="start" stroke-width="0" stroke-opacity="null" stroke="#ffff00" fill-opacity="null" fill="#000000" style="cursor: move; pointer-events: inherit;" font-size="24px" font-family="Helvetica,Arial,sans-serif" id="svg_225">309</text>
  <text xml:space="preserve" y="351" x="1381" text-anchor="start" stroke-width="0" stroke-opacity="null" stroke="#ffff00" fill-opacity="null" fill="#000000" style="cursor: move; pointer-events: inherit;" font-size="24px" font-family="Helvetica,Arial,sans-serif" id="svg_226">310</text>
  <text xml:space="preserve" y="351" x="1321" text-anchor="start" stroke-width="0" stroke-opacity="null" stroke="#ffff00" fill-opacity="null" fill="#000000" style="cursor: move; pointer-events: inherit;" font-size="24px" font-family="Helvetica,Arial,sans-serif" id="svg_227">311</text>
  <text xml:space="preserve" y="525" x="1254" text-anchor="start" stroke-width="0" stroke-opacity="null" stroke="#ffff00" fill-opacity="null" fill="#000000" style="cursor: move; pointer-events: inherit;" font-size="24px" font-family="Helvetica,Arial,sans-serif" id="svg_228">313</text>
  <text xml:space="preserve" y="615" x="1254" text-anchor="start" stroke-width="0" stroke-opacity="null" stroke="#ffff00" fill-opacity="null" fill="#000000" style="cursor: move; pointer-events: inherit;" font-size="24px" font-family="Helvetica,Arial,sans-serif" id="svg_229">314</text>
  <text xml:space="preserve" y="635" x="1144" text-anchor="start" stroke-width="0" stroke-opacity="null" stroke="#ffff00" fill-opacity="null" fill="#000000" style="cursor: move; pointer-events: inherit;" font-size="24px" font-family="Helvetica,Arial,sans-serif" id="svg_230">316</text>
  <text xml:space="preserve" y="673" x="1591" text-anchor="start" stroke-width="0" stroke-opacity="null" stroke="#ffff00" fill-opacity="null" fill="#000000" style="cursor: move; pointer-events: inherit;" font-size="24px" font-family="Helvetica,Arial,sans-serif" id="svg_231">304</text>
  <text xml:space="preserve" y="585" x="1591" text-anchor="start" stroke-width="0" stroke-opacity="null" stroke="#ffff00" fill-opacity="null" fill="#000000" style="cursor: move; pointer-events: inherit;" font-size="24px" font-family="Helvetica,Arial,sans-serif" id="svg_232">303</text>
  <text xml:space="preserve" y="452" x="1587" text-anchor="start" stroke-width="0" stroke-opacity="null" stroke="#ffff00" fill-opacity="null" fill="#000000" style="cursor: move; pointer-events: inherit;" font-size="24px" font-family="Helvetica,Arial,sans-serif" id="svg_233">301</text>
  <text xml:space="preserve" y="612" x="1500" text-anchor="start" stroke-width="0" stroke-opacity="null" stroke="#ffff00" fill-opacity="null" fill="#000000" style="cursor: move; pointer-events: inherit;" font-size="24px" font-family="Helvetica,Arial,sans-serif" id="svg_234">308</text>
  <text xml:space="preserve" y="511" x="1588" text-anchor="start" stroke-width="0" stroke-opacity="null" stroke="#ffff00" fill-opacity="null" fill="#000000" style="cursor: move; pointer-events: inherit;" font-size="24px" font-family="Helvetica,Arial,sans-serif" id="svg_235">302</text>
  <text xml:space="preserve" y="525" x="1500" text-anchor="start" stroke-width="0" stroke-opacity="null" stroke="#ffff00" fill-opacity="null" fill="#000000" style="cursor: move; pointer-events: inherit;" font-size="24px" font-family="Helvetica,Arial,sans-serif" id="svg_236">307</text>
  <ellipse ry="6" rx="6" cy="696" cx="680" stroke-width="2" stroke="#ffff00" fill="#ffff00" id="svg_237"/>
  <ellipse ry="6" rx="6" cy="345" cx="1279" stroke-width="2" stroke="#ff0000" fill="#ff0000" id="svg_238"/>
 </g>
</svg>