<svg width="1919.999991222912" height="1079.999995062888" xmlns="http://www.w3.org/2000/svg">
 <!-- Created with Method Draw - http://github.com/duopixel/Method-Draw/ -->

 <g>
  <title>background</title>
  <rect height="1082" width="1922" y="-1" x="-1" fill="#fff" id="canvas_background"/>
  <g display="none" id="canvasGrid">
   <rect height="100%" width="100%" y="0" x="0" stroke-width="0" fill="url(#gridpattern)" id="svg_1"/>
  </g>
 </g>
 <g>
  <title>Layer 1</title>
  <path d="m1549.577148,410.062469l28.930298,1.25946l0,298.743011l-28.930908,0l0.00061,-300.002472z" stroke-width="2" stroke-opacity="null" stroke="#a5a5a5" fill-opacity="null" fill="#a5a5a5" id="svg_115"/>
  <path d="m1308.540039,381.407013l201.01001,0l-0.51001,-30.654022l40.709961,0.503021l-1.01001,-50.753998l30.150024,1.004974l0,109.548004l-30.650024,-1.005005l-239.699951,0l0,-28.642975z" stroke-width="2" stroke="#a5a5a5" fill="#a5a5a5" id="svg_114"/>
  <path d="m679.960571,681.406982l560.22937,-1.005981l-2.361938,29.648987l-560.236023,0.502014l2.368591,-29.14502z" stroke-width="2" stroke="#a5a5a5" fill="#a5a5a5" id="svg_113"/>
  <path d="m1210.050293,410.552765l28.139648,-0.000336l0,269.848999l-29.145752,0.502563l1.006104,-270.351227z" stroke-width="2" stroke="#a5a5a5" fill="#a5a5a5" id="svg_112"/>
  <path d="m1119.158936,381.775726l89.719604,-0.467316l0,-49.532715l70.093384,0l-0.93457,29.43927l29.906616,0.467285l0,20.093445l0.467285,28.037384l-70.560791,0l-119.626099,0l0.93457,-28.037354z" stroke-width="2" stroke="#a5a5a5" fill="#a5a5a5" id="svg_111"/>
  <path d="m1089.719727,440.186951l-0.000122,243.18689l28.972046,-0.473083l-0.467285,-242.713837l-28.504639,0.000031z" stroke-width="2" stroke-opacity="null" stroke="#a5a5a5" fill-opacity="null" fill="#a5a5a5" id="svg_110"/>
  <path d="m1059.375,408.928558l0.000977,29.911133l29.910767,0.446411l29.017822,0.446442l0,-29.910736l-58.929565,-0.89325z" stroke-width="2" stroke="#a5a5a5" fill="#a5a5a5" id="svg_109"/>
  <path d="m1061.160034,301.338989l57.140015,-0.445984l0,79.463989l0,29.911011l-59.369995,-2.231995l2.22998,-106.697021z" stroke-width="2" stroke="#a5a5a5" fill="#a5a5a5" id="svg_107"/>
  <path d="m720.515503,302.709015l341.744507,-0.854004l-0.865112,38.888977l-272.10144,0l-0.429504,40.171021l-39.9776,-0.428009l-28.37085,0l-0.430481,-39.31601l0.430481,-38.461975z" stroke-width="2" stroke="#a5a5a5" fill="#a5a5a5" id="svg_106"/>
  <path d="m439.889008,300.855011l281.196014,0l-0.854004,38.888977l-281.197021,0.427002l0.855011,-39.315979z" stroke-width="2" stroke="#a5a5a5" fill="#a5a5a5" id="svg_105"/>
  <path d="m719.230774,681.914551l29.487183,0l-0.427368,-302.000031l-28.205139,1.290619l-0.854675,300.709412z" stroke-width="2" stroke-opacity="null" stroke="#a5a5a5" fill-opacity="null" fill="#a5a5a5" id="svg_104"/>
  <path d="m478.243011,681.590027l180.75296,0l0,-30.544006l60.251038,-0.41803l1,31.125l-41.004028,1l-0.58197,28.707031l-204.60202,-0.580994l4.184021,-29.289001z" stroke-width="2" stroke-opacity="null" stroke="#a5a5a5" fill-opacity="null" fill="#a5a5a5" id="svg_103"/>
  <path d="m410.388824,200.694458l28.47229,-0.000015l0,100.000015l0.694427,40.972198l0,309.72226l37.5,-0.694458l2.083344,29.861084l0.694427,29.861145l-70.833313,0l1.388824,-509.722229z" stroke-width="2" stroke="#a5a5a5" fill="#a5a5a5" id="svg_101"/>
  <line y2="711" x2="1579" y1="711" x1="1549" stroke-width="2" stroke-opacity="null" stroke-linejoin="null" stroke-linecap="null" stroke="#000" fill-opacity="null" fill="none" id="svg_11"/>
  <rect height="60" width="60" y="410.769" x="1489" stroke-width="2" stroke-opacity="null" stroke="#000" fill-opacity="null" fill="none" id="svg_12"/>
  <rect height="90" width="60" y="470.769" x="1489" stroke-width="2" stroke="#000" fill="#00b0f0" id="svg_13"/>
  <rect height="90" width="60" y="560.769" x="1489" stroke-width="2" stroke="#000" fill="#00b0f0" id="svg_14"/>
  <rect height="30" width="60" y="650.769" x="1489" stroke-width="2" stroke-opacity="null" stroke="#000" fill-opacity="null" fill="none" id="svg_15"/>
  <rect height="30" width="60" y="680.769" x="1489" stroke-width="2" stroke="#000" fill="#70ad47" id="svg_16"/>
  <rect height="80" width="60" y="300.769" x="1429" stroke-width="2" stroke="#000" fill="#00b0f0" id="svg_18"/>
  <rect height="80" width="60" y="300.769" x="1369" stroke-width="2" stroke="#000" fill="#00b0f0" id="svg_19"/>
  <rect height="80" width="60" y="300.769" x="1309" stroke-width="2" stroke="#000" fill="#00b0f0" id="svg_20"/>
  <rect height="30" width="20" y="350.769" x="1489" stroke-width="2" stroke-opacity="null" stroke="#000" fill-opacity="null" fill="none" id="svg_21"/>
  <rect height="50" width="60" y="300.769" x="1489" stroke-width="2" stroke-opacity="null" stroke="#000" fill-opacity="null" fill="none" id="svg_22"/>
  <rect height="30" width="60" y="300.769" x="1579" stroke-width="2" stroke="#000" fill="#70ad47" id="svg_23"/>
  <line y2="711" x2="1579" y1="330" x1="1579" stroke-width="2" stroke-opacity="null" stroke-linejoin="null" stroke-linecap="null" stroke="#000" fill-opacity="null" fill="none" id="svg_25"/>
  <line y2="411" x2="1489" y1="411" x1="1309" stroke-width="2" stroke-opacity="null" stroke-linejoin="null" stroke-linecap="null" stroke="#000" fill-opacity="null" fill="none" id="svg_26"/>
  <rect height="60" width="70" y="410.769" x="1239" stroke-width="2" stroke-opacity="null" stroke="#000" fill-opacity="null" fill="none" id="svg_27"/>
  <rect height="90" width="70" y="470.769" x="1239" stroke-width="2" stroke="#000" fill="#00b0f0" id="svg_28"/>
  <rect height="90" width="70" y="560.769" x="1239" stroke-width="2" stroke="#000" fill="#00b0f0" id="svg_29"/>
  <rect height="30" width="70" y="650.769" x="1239" stroke-width="2" stroke-opacity="null" stroke="#000" fill-opacity="null" fill="none" id="svg_30"/>
  <rect height="30" width="70" y="680.77" x="1239" stroke-width="2" stroke="#000" fill="#70ad47" id="svg_31"/>
  <line y2="711" x2="1239" y1="711" x1="1119" stroke-width="2" stroke-opacity="null" stroke-linejoin="null" stroke-linecap="null" stroke="#000" fill-opacity="null" fill="none" id="svg_32"/>
  <rect height="100" width="90" y="581" x="1119" stroke-width="2" stroke="#000" fill="#00b0f0" id="svg_33"/>
  <rect height="170" width="90" y="411" x="1119" stroke-width="2" stroke-opacity="null" stroke="#000" fill-opacity="null" fill="none" id="svg_34"/>
  <rect height="80" width="90" y="301" x="1119" stroke-width="2" stroke="#000" fill="#00b0f0" id="svg_36"/>
  <rect height="30" width="70" y="301" x="1209" stroke-width="2" stroke="#000" fill="#70ad47" id="svg_37"/>
  <rect height="30" width="70" y="650.77" x="1019" stroke-width="2" stroke="#000" fill="#70ad47" id="svg_38"/>
  <rect height="90" width="70" y="560.77" x="1019" stroke-width="2" stroke="#000" fill="#00b0f0" id="svg_39"/>
  <rect height="90" width="70" y="470.77" x="1019" stroke-width="2" stroke="#000" fill="#00b0f0" id="svg_40"/>
  <rect height="30" width="70" y="440.77" x="1019" stroke-width="2" stroke="#000" fill="#70ad47" id="svg_41"/>
  <rect height="30" width="40.3334" y="410.77" x="1019" stroke-width="2" stroke-opacity="null" stroke="#000" fill-opacity="null" fill="none" id="svg_42"/>
  <rect height="70" width="30" y="340.77" x="1029" stroke-width="2" stroke-opacity="null" stroke="#000" fill-opacity="null" fill="none" id="svg_43"/>
  <rect height="70" width="41" y="340.77" x="988" stroke-width="2" stroke="#000" fill="#00b0f0" id="svg_44"/>
  <rect height="70" width="60" y="340.769" x="929" stroke-width="2" stroke="#000" fill="#00b0f0" id="svg_45"/>
  <rect height="70" width="120" y="340.769" x="809" stroke-width="2" stroke="#000" fill="#00b0f0" id="svg_47"/>
  <rect height="40" width="20" y="340.769" x="789" stroke-width="2" stroke-opacity="null" stroke="#000" fill-opacity="null" fill="none" id="svg_48"/>
  <rect height="31" width="60" y="380.769" x="749" stroke-width="2" stroke="#000" fill="#00b0f0" id="svg_49"/>
  <rect height="113" width="60" y="410.769" x="749" stroke-width="2" stroke="#000" fill="#00b0f0" id="svg_50"/>
  <rect height="128" width="60" y="522.769" x="749" stroke-width="2" stroke="#000" fill="#00b0f0" id="svg_51"/>
  <rect height="30" width="60" y="650.77" x="749" stroke-width="2" stroke="#000" fill="#70ad47" id="svg_52"/>
  <line y2="680.517" x2="1019" y1="681" x1="809" stroke-width="2" stroke-opacity="null" stroke-linejoin="null" stroke-linecap="null" stroke="#000" fill-opacity="null" fill="none" id="svg_53"/>
  <rect height="30" width="60" y="340.77" x="659" stroke-width="2" stroke="#000" fill="#70ad47" id="svg_54"/>
  <rect height="60" width="60" y="371.77" x="659" stroke-width="2" stroke-opacity="null" stroke="#000" fill-opacity="null" fill="none" id="svg_55"/>
  <rect height="129" width="60" y="431.769" x="659" stroke-width="2" stroke="#000" fill="#00b0f0" id="svg_56"/>
  <rect height="77" width="60" y="558.769" x="659" stroke-width="2" stroke="#000" fill="#00b0f0" id="svg_57"/>
  <rect height="70" width="139" y="610.77" x="580" stroke-width="2" stroke="#000" fill="#00b0f0" id="svg_60"/>
  <rect height="70" width="80" y="610.77" x="498.533" stroke-width="2" stroke="#000" fill="#00b0f0" id="svg_61"/>
  <rect height="40" width="60" y="610.303" x="439.467" stroke-width="2" stroke-opacity="null" stroke="#000" fill-opacity="null" fill="none" id="svg_62"/>
  <rect height="123" width="60" y="461.769" x="439" stroke-width="2" stroke="#000" fill="#00b0f0" id="svg_63"/>
  <rect height="68" width="60" y="583" x="439" stroke-width="2" stroke="#000" fill="#00b0f0" id="svg_64"/>
  <rect height="122" width="60" y="341" x="439" stroke-width="2" stroke="#000" fill="#00b0f0" id="svg_65"/>
  <line y2="341" x2="659" y1="341" x1="499" stroke-width="2" stroke-opacity="null" stroke-linejoin="null" stroke-linecap="null" stroke="#000" fill-opacity="null" fill="none" id="svg_66"/>
  <rect height="70" width="60" y="230.769" x="439" stroke-width="2" stroke="#000" fill="#00b0f0" id="svg_67"/>
  <rect height="30" width="60" y="200.77" x="439" stroke-width="2" stroke="#000" fill="#70ad47" id="svg_68"/>
  <rect height="30" width="20" y="650.77" x="479" stroke-width="2" stroke-opacity="null" stroke="#000" fill-opacity="null" fill="none" id="svg_71"/>
  <rect height="60" width="60" y="301" x="349" stroke-width="2" stroke-opacity="null" stroke="#000" fill-opacity="null" fill="none" id="svg_72"/>
  <rect height="30" width="60" y="360.77" x="349" stroke-width="2" stroke="#000" fill="#70ad47" id="svg_73"/>
  <rect height="71" width="60" y="391" x="349" stroke-width="2" stroke="#000" fill="#00b0f0" id="svg_74"/>
  <rect height="67" width="60" y="461.769" x="349" stroke-width="2" stroke="#000" fill="#00b0f0" id="svg_75"/>
  <rect height="123" width="60" y="528" x="349" stroke-width="2" stroke="#000" fill="#00b0f0" id="svg_76"/>
  <rect height="30" width="60" y="650.77" x="349" stroke-width="2" stroke="#000" fill="#70ad47" id="svg_77"/>
  <rect height="30" width="60" y="680.77" x="349" stroke-width="2" stroke-opacity="null" stroke="#000" fill-opacity="null" fill="none" id="svg_78"/>
  <line y2="711" x2="1133" y1="711" x1="409" stroke-width="2" stroke-opacity="null" stroke-linejoin="null" stroke-linecap="null" stroke="#000" fill-opacity="null" fill="none" id="svg_79"/>
  <line y2="711" x2="780" y1="711" x1="479" stroke-width="2" stroke-opacity="null" stroke-linejoin="null" stroke-linecap="null" stroke="#000" fill-opacity="null" fill="none" id="svg_80"/>
  <line y2="301" x2="1119.17" y1="301" x1="637.5" stroke-width="2" stroke-opacity="null" stroke-linejoin="null" stroke-linecap="null" stroke="#000" fill-opacity="null" fill="none" id="svg_85"/>
  <line y2="301" x2="1579" y1="301" x1="1549" stroke-width="2" stroke-opacity="null" stroke-linejoin="null" stroke-linecap="null" stroke="#000" fill-opacity="null" fill="none" id="svg_86"/>
  <line y2="201.667" x2="409" y1="302" x1="409" stroke-width="2" stroke-opacity="null" stroke-linejoin="null" stroke-linecap="null" stroke="#000" fill-opacity="null" fill="none" id="svg_89"/>
  <line y2="201" x2="439" y1="201" x1="409" stroke-width="2" stroke-opacity="null" stroke-linejoin="null" stroke-linecap="null" stroke="#000" fill-opacity="null" fill="none" id="svg_90"/>
  <line y2="301" x2="642.167" y1="301" x1="499" stroke-width="2" stroke-opacity="null" stroke-linejoin="null" stroke-linecap="null" stroke="#000" fill-opacity="null" fill="none" id="svg_91"/>
  <rect height="30" width="30" y="301" x="1279" stroke-width="2" stroke-opacity="null" stroke="#000" fill-opacity="null" fill="none" id="svg_92"/>
  <rect height="30" width="30" y="331" x="1279" stroke-width="2" stroke-opacity="null" stroke="#000" fill="#7030a0" id="svg_93"/>
  <path d="m1560,621.818176" stroke-width="2" stroke-opacity="null" stroke="#000" fill="#a5a5a5" opacity="0.5" id="svg_94"/>
  <path d="m1059.821411,408.928558" stroke-width="2" stroke="#a5a5a5" fill="#a5a5a5" opacity="0.5" id="svg_108"/>
  <ellipse ry="6" rx="6" cy="240" cx="439" stroke-width="2" stroke="#000000" fill="#000000" id="svg_118"/>
  <ellipse ry="6" rx="6" cy="291" cx="439" stroke-width="2" stroke="#000000" fill="#000000" id="svg_119"/>
  <ellipse ry="6" rx="6" cy="472" cx="439" stroke-width="2" stroke="#000000" fill="#000000" id="svg_120"/>
  <ellipse ry="6" rx="6" cy="571" cx="439" stroke-width="2" stroke="#000000" fill="#000000" id="svg_121"/>
  <ellipse ry="6" rx="6" cy="451" cx="439" stroke-width="2" stroke="#000000" fill="#000000" id="svg_122"/>
  <ellipse ry="6" rx="6" cy="351" cx="439" stroke-width="2" stroke="#000000" fill="#000000" id="svg_123"/>
  <ellipse ry="6" rx="6" cy="639" cx="439" stroke-width="2" stroke="#000000" fill="#000000" id="svg_124"/>
  <ellipse ry="6" rx="6" cy="593" cx="439" stroke-width="2" stroke="#000000" fill="#000000" id="svg_125"/>
  <ellipse ry="6" rx="6" cy="640" cx="409" stroke-width="2" stroke="#000000" fill="#000000" id="svg_126"/>
  <ellipse ry="6" rx="6" cy="539" cx="409" stroke-width="2" stroke="#000000" fill="#000000" id="svg_127"/>
  <ellipse ry="6" rx="6" cy="401" cx="409" stroke-width="2" stroke="#000000" fill="#000000" id="svg_128"/>
  <ellipse ry="6" rx="6" cy="450" cx="409" stroke-width="2" stroke="#000000" fill="#000000" id="svg_129"/>
  <ellipse ry="6" rx="6" cy="472" cx="409" stroke-width="2" stroke="#000000" fill="#000000" id="svg_130"/>
  <ellipse ry="6" rx="6" cy="518" cx="409" stroke-width="2" stroke="#000000" fill="#000000" id="svg_131"/>
  <ellipse ry="6" rx="6" cy="680" cx="657.477" stroke-width="2" stroke="#000000" fill="#000000" id="svg_135"/>
  <ellipse ry="6" rx="6" cy="680" cx="567" stroke-width="2" stroke="#000000" fill="#000000" id="svg_137"/>
  <ellipse ry="6" rx="6" cy="680" cx="510" stroke-width="2" stroke="#000000" fill="#000000" id="svg_138"/>
  <ellipse ry="6" rx="6" cy="533.039" cx="748" stroke-width="2" stroke="#000000" fill="#000000" id="svg_139"/>
  <ellipse ry="6" rx="6" cy="640" cx="748" stroke-width="2" stroke="#000000" fill="#000000" id="svg_140"/>
  <ellipse ry="6" rx="6" cy="391" cx="748" stroke-width="2" stroke="#000000" fill="#000000" id="svg_141"/>
  <ellipse ry="6" rx="6" cy="423.032" cx="748" stroke-width="2" stroke="#000000" fill="#000000" id="svg_143"/>
  <ellipse ry="6" rx="6" cy="511.039" cx="748" stroke-width="2" stroke="#000000" fill="#000000" id="svg_144"/>
  <ellipse ry="6" rx="6" cy="571.003" cx="718" stroke-width="2" stroke="#000000" fill="#000000" id="svg_145"/>
  <ellipse ry="6" rx="6" cy="547.663" cx="718" stroke-width="2" stroke="#000000" fill="#000000" id="svg_147"/>
  <ellipse ry="6" rx="6" cy="441" cx="718" stroke-width="2" stroke="#000000" fill="#000000" id="svg_148"/>
  <ellipse ry="6" rx="6" cy="341" cx="939" stroke-width="2" stroke="#000000" fill="#000000" id="svg_149"/>
  <ellipse ry="6" rx="6" cy="341" cx="858" stroke-width="2" stroke="#000000" fill="#000000" id="svg_151"/>
  <ellipse ry="6" rx="6" cy="341" cx="819" stroke-width="2" stroke="#000000" fill="#000000" id="svg_153"/>
  <ellipse ry="6" rx="6" cy="341" cx="999" stroke-width="2" stroke="#000000" fill="#000000" id="svg_154"/>
  <ellipse ry="6" rx="6" cy="341" cx="978" stroke-width="2" stroke="#000000" fill="#000000" id="svg_155"/>
  <ellipse ry="6" rx="6" cy="381" cx="1198" stroke-width="2" stroke="#000000" fill="#000000" id="svg_156"/>
  <ellipse ry="6" rx="6" cy="381" cx="1130" stroke-width="2" stroke="#000000" fill="#000000" id="svg_157"/>
  <ellipse ry="6" rx="6" cy="550" cx="1090" stroke-width="2" stroke="#000000" fill="#000000" id="svg_158"/>
  <ellipse ry="6" rx="6" cy="482" cx="1090" stroke-width="2" stroke="#000000" fill="#000000" id="svg_159"/>
  <ellipse ry="6" rx="6" cy="640" cx="1090" stroke-width="2" stroke="#000000" fill="#000000" id="svg_160"/>
  <ellipse ry="6" rx="6" cy="572" cx="1090" stroke-width="2" stroke="#000000" fill="#000000" id="svg_161"/>
  <ellipse ry="6" rx="6" cy="679.533" cx="1198" stroke-width="2" stroke="#000000" fill="#000000" id="svg_162"/>
  <ellipse ry="6" rx="6" cy="680" cx="1130" stroke-width="2" stroke="#000000" fill="#000000" id="svg_163"/>
  <ellipse ry="6" rx="6" cy="571" cx="1238.93" stroke-width="2" stroke="#000000" fill="#000000" id="svg_164"/>
  <ellipse ry="6" rx="6" cy="639.533" cx="1238" stroke-width="2" stroke="#000000" fill="#000000" id="svg_165"/>
  <ellipse ry="6" rx="6" cy="482" cx="1238" stroke-width="2" stroke="#000000" fill="#000000" id="svg_166"/>
  <ellipse ry="6" rx="6" cy="549" cx="1238" stroke-width="2" stroke="#000000" fill="#000000" id="svg_167"/>
  <ellipse ry="6" rx="6" cy="381" cx="1359" stroke-width="2" stroke="#000000" fill="#000000" id="svg_168"/>
  <ellipse ry="6" rx="6" cy="381" cx="1320" stroke-width="2" stroke="#000000" fill="#000000" id="svg_169"/>
  <ellipse ry="6" rx="6" cy="381" cx="1477" stroke-width="2" stroke="#000000" fill="#000000" id="svg_170"/>
  <ellipse ry="6" rx="6" cy="381" cx="1441" stroke-width="2" stroke="#000000" fill="#000000" id="svg_171"/>
  <ellipse ry="6" rx="6" cy="381" cx="1418" stroke-width="2" stroke="#000000" fill="#000000" id="svg_172"/>
  <ellipse ry="6" rx="6" cy="381" cx="1380" stroke-width="2" stroke="#000000" fill="#000000" id="svg_173"/>
  <ellipse ry="6" rx="6" cy="482" cx="1548" stroke-width="2" stroke="#000000" fill="#000000" id="svg_174"/>
  <ellipse ry="6" rx="6" cy="549" cx="1548" stroke-width="2" stroke="#000000" fill="#000000" id="svg_175"/>
  <ellipse ry="6" rx="6" cy="571" cx="1548.93" stroke-width="2" stroke="#000000" fill="#000000" id="svg_176"/>
  <ellipse ry="6" rx="6" cy="639.533" cx="1548" stroke-width="2" stroke="#000000" fill="#000000" id="svg_177"/>
  <ellipse ry="6" rx="6" cy="216" cx="439" stroke-width="2" stroke="#ff0000" fill="#ff0000" id="svg_186"/>
  <ellipse ry="6" rx="6" cy="376" cx="409" stroke-width="2" stroke="#ff0000" fill="#ff0000" id="svg_187"/>
  <ellipse ry="6" rx="6" cy="666" cx="409" stroke-width="2" stroke="#ff0000" fill="#ff0000" id="svg_188"/>
  <ellipse ry="6" rx="6" cy="356" cx="719" stroke-width="2" stroke="#ff0000" fill="#ff0000" id="svg_189"/>
  <ellipse ry="6" rx="6" cy="666" cx="749" stroke-width="2" stroke="#ff0000" fill="#ff0000" id="svg_190"/>
  <ellipse ry="6" rx="6" cy="440" cx="1075" stroke-width="2" stroke="#ff0000" fill="#ff0000" id="svg_191"/>
  <ellipse ry="6" rx="6" cy="666" cx="1089" stroke-width="2" stroke="#ff0000" fill="#ff0000" id="svg_192"/>
  <ellipse ry="6" rx="6" cy="330" cx="1265" stroke-width="2" stroke="#ff0000" fill="#ff0000" id="svg_193"/>
  <ellipse ry="6" rx="6" cy="696" cx="1239" stroke-width="2" stroke="#ff0000" fill="#ff0000" id="svg_194"/>
  <ellipse ry="6" rx="6" cy="316" cx="1580" stroke-width="2" stroke="#ff0000" fill="#ff0000" id="svg_195"/>
  <ellipse ry="6" rx="6" cy="696" cx="1549" stroke-width="2" stroke="#ff0000" fill="#ff0000" id="svg_196"/>
  <ellipse rx="0.233645" cy="685.047" cx="141.355" stroke-width="2" stroke="#ffff00" fill="#ffff00" id="svg_199"/>
  <text xml:space="preserve" y="485" x="670" text-anchor="start" stroke-width="0" stroke-opacity="null" stroke="#ffff00" fill-opacity="null" fill="#000000" style="cursor: move; pointer-events: inherit;" font-size="24px" font-family="Helvetica,Arial,sans-serif" id="svg_203">522</text>
  <text xml:space="preserve" y="629" x="449" text-anchor="start" stroke-width="0" stroke-opacity="null" stroke="#ffff00" fill-opacity="null" fill="#000000" style="cursor: move; pointer-events: inherit;" font-size="24px" font-family="Helvetica,Arial,sans-serif" id="svg_204">525</text>
  <text xml:space="preserve" y="504" x="362" text-anchor="start" stroke-width="0" stroke-opacity="null" stroke="#ffff00" fill-opacity="null" fill="#000000" style="cursor: move; pointer-events: inherit;" font-size="24px" font-family="Helvetica,Arial,sans-serif" id="svg_205">530</text>
  <text xml:space="preserve" y="535" x="450" text-anchor="start" stroke-width="0" stroke-opacity="null" stroke="#ffff00" fill-opacity="null" fill="#000000" style="cursor: move; pointer-events: inherit;" font-size="24px" font-family="Helvetica,Arial,sans-serif" id="svg_206">526</text>
  <text xml:space="preserve" y="440" x="360" text-anchor="start" stroke-width="0" stroke-opacity="null" stroke="#ffff00" fill-opacity="null" fill="#000000" style="cursor: move; pointer-events: inherit;" font-size="24px" font-family="Helvetica,Arial,sans-serif" id="svg_207">529</text>
  <text xml:space="preserve" y="416" x="450" text-anchor="start" stroke-width="0" stroke-opacity="null" stroke="#ffff00" fill-opacity="null" fill="#000000" style="cursor: move; pointer-events: inherit;" font-size="24px" font-family="Helvetica,Arial,sans-serif" id="svg_208">527</text>
  <text xml:space="preserve" y="276" x="451" transform="matrix(0.855253, 0, 0, 0.89498, 67.0797, 25.9567)" text-anchor="start" stroke-width="0" stroke-opacity="null" stroke="#ffff00" fill-opacity="null" fill="#000000" style="cursor: move; pointer-events: inherit;" font-size="24px" font-family="Helvetica,Arial,sans-serif" id="svg_209">528</text>
  <text xml:space="preserve" y="612" x="358" text-anchor="start" stroke-width="0" stroke-opacity="null" stroke="#ffff00" fill-opacity="null" fill="#000000" style="cursor: move; pointer-events: inherit;" font-size="24px" font-family="Helvetica,Arial,sans-serif" id="svg_211">531</text>
  <text xml:space="preserve" y="652" x="638" text-anchor="start" stroke-width="0" stroke-opacity="null" stroke="#ffff00" fill-opacity="null" fill="#000000" style="cursor: move; pointer-events: inherit;" font-size="24px" font-family="Helvetica,Arial,sans-serif" id="svg_212">523</text>
  <text xml:space="preserve" y="656" x="523" text-anchor="start" stroke-width="0" stroke-opacity="null" stroke="#ffff00" fill-opacity="null" fill="#000000" style="cursor: move; pointer-events: inherit;" font-size="24px" font-family="Helvetica,Arial,sans-serif" id="svg_213">524</text>
  <text xml:space="preserve" y="593" x="761" text-anchor="start" stroke-width="0" stroke-opacity="null" stroke="#ffff00" fill-opacity="null" fill="#000000" style="cursor: move; pointer-events: inherit;" font-size="24px" font-family="Helvetica,Arial,sans-serif" id="svg_214">521</text>
  <text xml:space="preserve" y="472" x="764" text-anchor="start" stroke-width="0" stroke-opacity="null" stroke="#ffff00" fill-opacity="null" fill="#000000" style="cursor: move; pointer-events: inherit;" font-size="24px" font-family="Helvetica,Arial,sans-serif" id="svg_215">520</text>
  <text xml:space="preserve" y="407" x="763" text-anchor="start" stroke-width="0" stroke-opacity="null" stroke="#ffff00" fill-opacity="null" fill="#000000" style="cursor: move; pointer-events: inherit;" font-size="24px" font-family="Helvetica,Arial,sans-serif" id="svg_216">519</text>
  <text xml:space="preserve" y="385" x="989" text-anchor="start" stroke-width="0" stroke-opacity="null" stroke="#ffff00" fill-opacity="null" fill="#000000" style="cursor: move; pointer-events: inherit;" font-size="24px" font-family="Helvetica,Arial,sans-serif" id="svg_218">516</text>
  <text xml:space="preserve" y="385" x="940" text-anchor="start" stroke-width="0" stroke-opacity="null" stroke="#ffff00" fill-opacity="null" fill="#000000" style="cursor: move; pointer-events: inherit;" font-size="24px" font-family="Helvetica,Arial,sans-serif" id="svg_219">517</text>
  <text xml:space="preserve" y="385" x="853" text-anchor="start" stroke-width="0" stroke-opacity="null" stroke="#ffff00" fill-opacity="null" fill="#000000" style="cursor: move; pointer-events: inherit;" font-size="24px" font-family="Helvetica,Arial,sans-serif" id="svg_221">518</text>
  <text xml:space="preserve" y="615" x="1034" text-anchor="start" stroke-width="0" stroke-opacity="null" stroke="#ffff00" fill-opacity="null" fill="#000000" style="cursor: move; pointer-events: inherit;" font-size="24px" font-family="Helvetica,Arial,sans-serif" id="svg_222">513</text>
  <text xml:space="preserve" y="525" x="1034" text-anchor="start" stroke-width="0" stroke-opacity="null" stroke="#ffff00" fill-opacity="null" fill="#000000" style="cursor: move; pointer-events: inherit;" font-size="24px" font-family="Helvetica,Arial,sans-serif" id="svg_223">514</text>
  <text xml:space="preserve" y="351" x="1147" text-anchor="start" stroke-width="0" stroke-opacity="null" stroke="#ffff00" fill-opacity="null" fill="#000000" style="cursor: move; pointer-events: inherit;" font-size="24px" font-family="Helvetica,Arial,sans-serif" id="svg_224">508</text>
  <text xml:space="preserve" y="352" x="1442" text-anchor="start" stroke-width="0" stroke-opacity="null" stroke="#ffff00" fill-opacity="null" fill="#000000" style="cursor: move; pointer-events: inherit;" font-size="24px" font-family="Helvetica,Arial,sans-serif" id="svg_225">505</text>
  <text xml:space="preserve" y="351" x="1381" text-anchor="start" stroke-width="0" stroke-opacity="null" stroke="#ffff00" fill-opacity="null" fill="#000000" style="cursor: move; pointer-events: inherit;" font-size="24px" font-family="Helvetica,Arial,sans-serif" id="svg_226">506</text>
  <text xml:space="preserve" y="351" x="1321" text-anchor="start" stroke-width="0" stroke-opacity="null" stroke="#ffff00" fill-opacity="null" fill="#000000" style="cursor: move; pointer-events: inherit;" font-size="24px" font-family="Helvetica,Arial,sans-serif" id="svg_227">507</text>
  <text xml:space="preserve" y="525" x="1254" text-anchor="start" stroke-width="0" stroke-opacity="null" stroke="#ffff00" fill-opacity="null" fill="#000000" style="cursor: move; pointer-events: inherit;" font-size="24px" font-family="Helvetica,Arial,sans-serif" id="svg_228">509</text>
  <text xml:space="preserve" y="615" x="1254" text-anchor="start" stroke-width="0" stroke-opacity="null" stroke="#ffff00" fill-opacity="null" fill="#000000" style="cursor: move; pointer-events: inherit;" font-size="24px" font-family="Helvetica,Arial,sans-serif" id="svg_229">510</text>
  <text xml:space="preserve" y="635" x="1144" text-anchor="start" stroke-width="0" stroke-opacity="null" stroke="#ffff00" fill-opacity="null" fill="#000000" style="cursor: move; pointer-events: inherit;" font-size="24px" font-family="Helvetica,Arial,sans-serif" id="svg_230">512</text>
  <text xml:space="preserve" y="612" x="1500" text-anchor="start" stroke-width="0" stroke-opacity="null" stroke="#ffff00" fill-opacity="null" fill="#000000" style="cursor: move; pointer-events: inherit;" font-size="24px" font-family="Helvetica,Arial,sans-serif" id="svg_234">502</text>
  <text xml:space="preserve" y="525" x="1500" text-anchor="start" stroke-width="0" stroke-opacity="null" stroke="#ffff00" fill-opacity="null" fill="#000000" style="cursor: move; pointer-events: inherit;" font-size="24px" font-family="Helvetica,Arial,sans-serif" id="svg_236">503</text>
  <ellipse ry="6" rx="6" cy="345" cx="1279" stroke-width="2" stroke="#ff0000" fill="#ff0000" id="svg_238"/>
  <line y2="308.5" x2="688.67" y1="308.5" x1="673" transform="rotate(90 680.835 308.5)" stroke-width="2" stroke-opacity="null" stroke-linejoin="null" stroke-linecap="null" stroke="#000" fill-opacity="null" fill="none" id="svg_6"/>
  <line y2="315" x2="707.17" y1="315" x1="692.5" transform="rotate(90 680.835 315)" stroke-width="2" stroke-opacity="null" stroke-linejoin="null" stroke-linecap="null" stroke="#000" fill-opacity="null" fill="none" id="svg_7"/>
  <line y2="686" x2="808.17" y1="686" x1="815.5" transform="rotate(90 811.835 686)" stroke-width="2" stroke-opacity="null" stroke-linejoin="null" stroke-linecap="null" stroke="#000" fill-opacity="null" fill="none" id="svg_8"/>
  <line y2="685" x2="1008.17" y1="685" x1="1015.5" transform="rotate(90 1011.84 685)" stroke-width="2" stroke-opacity="null" stroke-linejoin="null" stroke-linecap="null" stroke="#000" fill-opacity="null" fill="none" id="svg_9"/>
  <line y2="704.5" x2="1006.67" y1="704.5" x1="1017" transform="rotate(90 1011.83 704.5)" stroke-width="2" stroke-opacity="null" stroke-linejoin="null" stroke-linecap="null" stroke="#000" fill-opacity="null" fill="none" id="svg_10"/>
  <line y2="707.5" x2="806.67" y1="707.5" x1="817" transform="rotate(90 811.835 707.5)" stroke-width="2" stroke-opacity="null" stroke-linejoin="null" stroke-linecap="null" stroke="#000" fill-opacity="null" fill="none" id="svg_17"/>
  <line y2="308.5" x2="1036.67" y1="308.5" x1="1021" transform="rotate(90 1028.83 308.5)" stroke-width="2" stroke-opacity="null" stroke-linejoin="null" stroke-linecap="null" stroke="#000" fill-opacity="null" fill="none" id="svg_35"/>
  <line y2="315" x2="1055.17" y1="315" x1="1040.5" transform="rotate(90 1028.83 315)" stroke-width="2" stroke-opacity="null" stroke-linejoin="null" stroke-linecap="null" stroke="#000" fill-opacity="null" fill="none" id="svg_46"/>
  <line y2="385.485" x2="1315.67" y1="385.485" x1="1303.99" transform="rotate(90 1309.83 385.485)" stroke-width="2" stroke-opacity="null" stroke-linejoin="null" stroke-linecap="null" stroke="#000" fill-opacity="null" fill="none" id="svg_58"/>
  <line y2="404.485" x2="1315.67" y1="404.485" x1="1303.99" transform="rotate(90 1309.83 404.485)" stroke-width="2" stroke-opacity="null" stroke-linejoin="null" stroke-linecap="null" stroke="#000" fill-opacity="null" fill="none" id="svg_59"/>
  <rect height="3.25" width="56.8948" y="609.822" x="660.105" stroke-width="2" fill="#00b0f0" id="svg_81"/>
 </g>
</svg>