<svg width="3600.0013980709473" height="1799.9956991029753" xmlns="http://www.w3.org/2000/svg">
 <!-- Created with Method Draw - http://github.com/duopixel/Method-Draw/ -->
 <defs>
  <filter id="svg_43_blur">
   <feGaussianBlur stdDeviation="0.2"/>
  </filter>
 </defs>
 <g stroke="null">
  <title>background</title>
  <rect id="canvas_background" fill="#fff" x="-1" y="-1" width="3602.001398" height="1801.995699" stroke="null"/>
  <g id="canvasGrid" display="none" stroke="null">
   <rect id="svg_2" fill="url(#gridpattern)" stroke-width="0" x="0" y="0" width="100%" height="100%" stroke="null"/>
  </g>
 </g>
 <g stroke="null">
  <title>Layer 1</title>
  <rect id="svg_106" fill="#a5a5a5" stroke-opacity="null" stroke-width="0" x="840.166667" y="159.666667" width="20" height="62" stroke="#000"/>
  <path id="svg_1" opacity="0.5" fill="#fff" stroke-width="1.5" d="m101,100" stroke="#000"/>
  <rect id="svg_6" fill="#00b0f0" stroke-width="2" x="120" y="181.333333" width="40" height="58.666667" stroke="#000000"/>
  <rect id="svg_8" fill="#00b0f0" stroke-width="2" x="120" y="240" width="40" height="60" stroke="#000"/>
  <rect id="svg_10" fill="#00b0f0" stroke-width="2" x="120" y="299.997" width="40" height="60" stroke="#000"/>
  <rect id="svg_15" fill="#00b0f0" stroke-width="2" x="279.992" y="300" width="40" height="60" stroke="#000"/>
  <rect id="svg_18" fill="#00b0f0" stroke-opacity="null" stroke-width="2" x="279.992" y="240" width="40" height="60" stroke="#000"/>
  <rect id="svg_19" fill="#fff" fill-opacity="null" stroke-opacity="null" stroke-width="2" x="299.992" y="262.997" width="2.99997" height="0" stroke="#000"/>
  <rect id="svg_20" fill="#00b0f0" stroke-opacity="null" stroke-width="2" x="220" y="360" width="60" height="40" stroke="#000"/>
  <rect id="svg_25" fill="#00b0f0" stroke-width="2" x="341.991" y="200.997" width="39.9996" height="58.9993" stroke="#000000"/>
  <rect id="svg_26" fill="#00b0f0" stroke-opacity="null" stroke-width="2" x="342" y="260" width="40" height="62" stroke="#000"/>
  <rect id="svg_27" fill="#00b0f0" stroke-opacity="null" stroke-width="2" x="342" y="321" width="40" height="59.9993" stroke="#000"/>
  <rect id="svg_30" fill="#00b0f0" stroke-opacity="null" stroke-width="2" x="550" y="340" width="59.9993" height="60" stroke="#000"/>
  <rect id="svg_31" fill="#00b0f0" stroke-opacity="null" stroke-width="2" x="630" y="320" width="50" height="59.9993" stroke="#000"/>
  <rect id="svg_32" fill="#00b0f0" stroke-opacity="null" stroke-width="2" x="630" y="260" width="50" height="60" stroke="#000"/>
  <rect id="svg_33" fill="#00b0f0" fill-opacity="null" stroke-opacity="null" stroke-width="2" x="679.987" y="160" width="40" height="40" stroke="#000"/>
  <rect id="svg_34" fill="#00b0f0" fill-opacity="null" stroke-opacity="null" stroke-width="2" x="720" y="160" width="40" height="40" stroke="#000"/>
  <rect id="svg_35" fill="#00b0f0" fill-opacity="null" stroke-opacity="null" stroke-width="2" x="759.986" y="159.998" width="40" height="40" stroke="#000"/>
  <rect id="svg_36" fill="#00b0f0" fill-opacity="null" stroke-opacity="null" stroke-width="2" x="799.986" y="260" width="40" height="60" stroke="#000"/>
  <rect id="svg_37" fill="#00b0f0" fill-opacity="null" stroke-opacity="null" stroke-width="2" x="799.986" y="320" width="40" height="60" stroke="#000"/>
  <rect id="svg_38" fill="#00b0f0" stroke-opacity="null" stroke-width="2" x="860" y="230" width="40" height="30" stroke="#000"/>
  <rect id="svg_39" fill="#00b0f0" fill-opacity="null" stroke-opacity="null" stroke-width="2" x="860" y="260" width="40" height="30" stroke="#000"/>
  <rect id="svg_40" fill="#00b0f0" fill-opacity="null" stroke-opacity="null" stroke-width="2" x="860" y="350" width="39.9996" height="60" stroke="#000"/>
  <rect id="svg_41" fill="#00b0f0" fill-opacity="null" stroke-opacity="null" stroke-width="2" x="860" y="290" width="39.9996" height="60" stroke="#000"/>
  <text id="svg_42" font-family="Helvetica,Arial,sans-serif" font-size="NaN" fill="#000000" stroke-opacity="null" stroke-width="0" text-anchor="start" x="120" y="338" xml:space="preserve" stroke="#000">232</text>
  <text id="svg_43" font-family="Helvetica,Arial,sans-serif" font-size="NaN" filter="url(#svg_43_blur)" fill="#000000" stroke-opacity="null" stroke-width="0" text-anchor="start" x="139.9933" y="270.997" xml:space="preserve" stroke="#000">233</text>
  <text id="svg_44" font-family="Helvetica,Arial,sans-serif" font-size="NaN" fill="#000000" stroke-opacity="null" stroke-width="0" text-anchor="start" x="146.9932" y="274.9969" xml:space="preserve" stroke="#000"/>
  <rect id="svg_47" fill="#00b0f0" stroke-opacity="null" stroke-width="2" x="120" y="240" width="40" height="60" stroke="#000"/>
  <text id="svg_48" font-family="Helvetica,Arial,sans-serif" font-size="NaN" fill="#000000" stroke-opacity="null" stroke-width="0" text-anchor="start" x="130" y="274" xml:space="preserve" stroke="#000">434</text>
  <rect id="svg_49" fill="#00b0f0" stroke-opacity="null" stroke-width="2" x="120" y="300" width="39.9996" height="60" stroke="#000"/>
  <text id="svg_50" font-family="Helvetica,Arial,sans-serif" font-size="NaN" fill="#000000" stroke-opacity="null" stroke-width="0" text-anchor="start" x="130" y="333" xml:space="preserve" stroke="#000">433</text>
  <text id="svg_51" font-family="Helvetica,Arial,sans-serif" font-size="NaN" fill="#000000" stroke-opacity="null" stroke-width="0" text-anchor="start" x="130" y="215" xml:space="preserve" stroke="#000">435</text>
  <text id="svg_56" font-family="Helvetica,Arial,sans-serif" font-size="NaN" fill="#000000" stroke-opacity="null" stroke-width="0" text-anchor="start" x="240" y="385" xml:space="preserve" stroke="#000">430</text>
  <text id="svg_57" font-family="Helvetica,Arial,sans-serif" font-size="NaN" fill="#000000" stroke-opacity="null" stroke-width="0" text-anchor="start" x="290" y="275" xml:space="preserve" stroke="#000">427</text>
  <text id="svg_58" font-family="Helvetica,Arial,sans-serif" font-size="NaN" fill="#000000" stroke-opacity="null" stroke-width="0" text-anchor="start" x="290" y="335" xml:space="preserve" stroke="#000">428</text>
  <text id="svg_59" font-family="Helvetica,Arial,sans-serif" font-size="NaN" fill="#000000" stroke-opacity="null" stroke-width="0" text-anchor="start" x="352" y="357" xml:space="preserve" stroke="#000">426</text>
  <text id="svg_60" font-family="Helvetica,Arial,sans-serif" font-size="NaN" fill="#000000" stroke-opacity="null" stroke-width="0" text-anchor="start" x="352" y="295" xml:space="preserve" stroke="#000">425</text>
  <text id="svg_61" font-family="Helvetica,Arial,sans-serif" font-size="NaN" fill="#000000" fill-opacity="null" stroke-opacity="null" stroke-width="0" text-anchor="start" x="353" y="234.9973" xml:space="preserve" stroke="#000">424</text>
  <text id="svg_64" font-family="Helvetica,Arial,sans-serif" font-size="NaN" fill="#000000" fill-opacity="null" stroke-opacity="null" stroke-width="0" text-anchor="start" x="570" y="375" xml:space="preserve" stroke="#000">416</text>
  <text id="svg_65" font-family="Helvetica,Arial,sans-serif" font-size="NaN" fill="#000000" fill-opacity="null" stroke-opacity="null" stroke-width="0" text-anchor="start" x="645" y="355" xml:space="preserve" stroke="#000">414</text>
  <text id="svg_66" font-family="Helvetica,Arial,sans-serif" font-size="NaN" fill="#000000" fill-opacity="null" stroke-opacity="null" stroke-width="0" text-anchor="start" x="645" y="295" xml:space="preserve" stroke="#000">413</text>
  <text id="svg_67" font-family="Helvetica,Arial,sans-serif" font-size="NaN" fill="#000000" fill-opacity="null" stroke-opacity="null" stroke-width="0" text-anchor="start" x="690" y="184" xml:space="preserve" stroke="#000">414</text>
  <text id="svg_68" font-family="Helvetica,Arial,sans-serif" font-size="NaN" fill="#000000" fill-opacity="null" stroke-opacity="null" stroke-width="0" text-anchor="start" x="730" y="184" xml:space="preserve" stroke="#000">410</text>
  <text id="svg_69" font-family="Helvetica,Arial,sans-serif" font-size="NaN" fill="#000000" fill-opacity="null" stroke-opacity="null" stroke-width="0" text-anchor="start" x="770" y="184" xml:space="preserve" stroke="#000">409</text>
  <text id="svg_70" font-family="Helvetica,Arial,sans-serif" font-size="NaN" fill="#000000" fill-opacity="null" stroke-opacity="null" stroke-width="0" text-anchor="start" x="810" y="295" xml:space="preserve" stroke="#000">407</text>
  <text id="svg_71" font-family="Helvetica,Arial,sans-serif" font-size="NaN" fill="#000000" fill-opacity="null" stroke-opacity="null" stroke-width="0" text-anchor="start" x="810" y="355" xml:space="preserve" stroke="#000">406</text>
  <text id="svg_72" font-family="Helvetica,Arial,sans-serif" font-size="NaN" fill="#000000" fill-opacity="null" stroke-opacity="null" stroke-width="0" text-anchor="start" x="870" y="250" xml:space="preserve" stroke="#000">401</text>
  <text id="svg_73" font-family="Helvetica,Arial,sans-serif" font-size="NaN" fill="#000000" fill-opacity="null" stroke-opacity="null" stroke-width="0" text-anchor="start" x="870" y="280" xml:space="preserve" stroke="#000">402</text>
  <text id="svg_74" font-family="Helvetica,Arial,sans-serif" font-size="NaN" fill="#000000" fill-opacity="null" stroke-opacity="null" stroke-width="0" text-anchor="start" x="870" y="325" xml:space="preserve" stroke="#000">403</text>
  <text id="svg_75" font-family="Helvetica,Arial,sans-serif" font-size="NaN" fill="#000000" fill-opacity="null" stroke-opacity="null" stroke-width="0" text-anchor="start" x="870" y="382" xml:space="preserve" stroke="#000">404</text>
  <rect id="svg_77" fill="#ffffff" stroke-opacity="null" stroke-width="2" x="279.992" y="200" width="39.9996" height="40" stroke="#000"/>
  <rect id="svg_78" fill="#ffffff" stroke-opacity="null" stroke-width="2" x="119.994" y="360" width="40" height="19.9998" stroke="#000"/>
  <rect id="svg_79" fill="#ffffff" stroke-opacity="null" stroke-width="2" x="279.992" y="360" width="39.9996" height="20" stroke="#000"/>
  <rect id="svg_80" fill="#ffffff" stroke-opacity="null" stroke-width="2" x="363.333329" y="180" width="18.666471" height="20" stroke="#000"/>
  <rect id="svg_81" fill="#ffffff" stroke-opacity="null" stroke-width="2" x="479.99" y="180" width="40" height="40" stroke="#000"/>
  <rect id="svg_82" fill="#ffffff" stroke-opacity="null" stroke-width="2" x="629.988" y="220" width="49.9994" height="40" stroke="#000"/>
  <rect id="svg_83" fill="#ffffff" stroke-opacity="null" stroke-width="2" x="490" y="219.997" width="30" height="20" stroke="#000"/>
  <rect id="svg_84" fill="#ffffff" stroke-opacity="null" stroke-width="2" x="630" y="380" width="50" height="20" stroke="#000"/>
  <rect id="svg_85" fill="#ffffff" stroke-opacity="null" stroke-width="2" x="800" y="220" width="40" height="39.9996" stroke="#000"/>
  <rect id="svg_86" fill="#ffffff" stroke-opacity="null" stroke-width="2" x="810" y="380" width="30" height="20" stroke="#000"/>
  <rect id="svg_87" fill="#ffffff" stroke-opacity="null" stroke-width="2" x="800" y="160" width="40" height="19.9998" stroke="#000"/>
  <rect id="svg_88" fill="#a5a5a5" stroke-opacity="null" stroke-width="0" x="100" y="100" width="20" height="318.999999" stroke="#000"/>
  <rect id="svg_89" fill="#a5a5a5" stroke-opacity="null" stroke-width="0" x="120" y="100" width="40" height="20" stroke="#000"/>
  <rect id="svg_90" fill="#a5a5a5" stroke-opacity="null" stroke-width="0" x="120" y="400" width="262" height="20" stroke="#000"/>
  <rect id="svg_91" fill="#a5a5a5" stroke-opacity="null" stroke-width="0" x="120" y="380" width="40" height="20" stroke="#000"/>
  <rect id="svg_92" fill="#a5a5a5" stroke-opacity="null" stroke-width="0" x="280" y="379.996" width="100" height="20" stroke="#000"/>
  <rect id="svg_93" fill="#a5a5a5" stroke-opacity="null" stroke-width="0" x="320" y="200" width="22" height="181" stroke="#000"/>
  <rect stroke="#a5a5a5" id="svg_94" fill="#a5a5a5" stroke-width="2" x="320" y="180" width="41.333327" height="20"/>
  <rect id="svg_95" fill="#a5a5a5" stroke-opacity="null" stroke-width="0" x="108.666921" y="159.500002" width="506.999535" height="21.333333" stroke="#000"/>
  <rect id="svg_96" fill="#a5a5a5" stroke-opacity="null" stroke-width="0" x="529" y="399.996" width="101" height="19" stroke="#000"/>
  <rect id="svg_97" fill="#a5a5a5" stroke-opacity="null" stroke-width="0" x="530" y="180" width="20" height="220" stroke="#000"/>
  <rect id="svg_98" fill="#a5a5a5" fill-opacity="null" stroke-opacity="null" stroke-width="0" x="609.988" y="160" width="20" height="240" stroke="#000"/>
  <rect id="svg_103" fill="#a5a5a5" fill-opacity="null" stroke-opacity="null" stroke-width="0" x="622.000018" y="200" width="237.999982" height="20" stroke="#000"/>
  <rect id="svg_104" fill="#a5a5a5" fill-opacity="null" stroke-opacity="null" stroke-width="0" x="820" y="180" width="40" height="20" stroke="#000"/>
  <rect id="svg_105" fill="#a5a5a5" stroke-opacity="null" stroke-width="0" x="840" y="220" width="19.9998" height="201" stroke="#000"/>
  <rect id="svg_110" fill="#a5a5a5" stroke-opacity="null" stroke-width="2" x="664.987" y="159.998" width="20" height="40" stroke="#000"/>
  <rect id="svg_111" fill="#a5a5a5" stroke-opacity="null" stroke-width="0" x="520" y="179.998" width="30" height="79.9991" stroke="#000"/>
  <rect id="svg_112" fill="#70ad47" stroke-opacity="null" stroke-width="2" x="480" y="239.996999" width="50" height="21.33333" stroke="#000"/>
  <rect id="svg_113" fill="#7030a0" stroke-width="2" x="664.987" y="180" width="19.9998" height="20" stroke="#0000a0"/>
  <rect id="svg_115" fill="#70ad47" stroke-opacity="null" stroke-width="2" x="630" y="400" width="50" height="20" stroke="#000"/>
  <rect id="svg_116" fill="#70ad47" stroke-opacity="null" stroke-width="2" x="800" y="400" width="40" height="19.9998" stroke="#000"/>
  <rect id="svg_117" fill="#70ad47" stroke-opacity="null" stroke-width="2" x="630" y="160" width="36" height="20" stroke="#000"/>
  <rect id="svg_118" fill="#70ad47" stroke-opacity="null" stroke-width="2" x="860" y="160" width="40" height="20" stroke="#000"/>
  <line id="svg_125" fill="none" fill-opacity="null" stroke-linecap="null" stroke-linejoin="null" stroke-opacity="null" stroke-width="2" x1="495.989" y1="159.998" x2="495.989" y2="165" stroke="#000"/>
  <line id="svg_126" fill="none" fill-opacity="null" stroke-linecap="null" stroke-linejoin="null" stroke-opacity="null" stroke-width="2" x1="495.989" y1="175" x2="495.989" y2="180" stroke="#000"/>
  <line id="svg_127" fill="none" fill-opacity="null" stroke-linecap="null" stroke-linejoin="null" stroke-opacity="null" stroke-width="2" x1="665.987" y1="199" x2="666" y2="206.998" stroke="#000"/>
  <line id="svg_128" fill="none" stroke-linecap="null" stroke-linejoin="null" stroke-opacity="null" stroke-width="2" x1="665.987" y1="215" x2="666" y2="220" stroke="#000"/>
  <rect id="svg_131" fill="#a5a5a5" stroke-opacity="null" stroke-width="0" x="479.833333" y="380" width="52" height="41" stroke="#000"/>
  <ellipse id="svg_133" fill="#ff0047" stroke-opacity="null" stroke-width="2" cx="841.486" cy="410.495" rx="1.49998" ry="0.499994" stroke="#000"/>
  <ellipse id="svg_134" fill="#ff0047" stroke-opacity="null" stroke-width="0" transform="rotate(9 840.0000000000009,411.00000000000045) " cx="840" cy="411" rx="3.99996" ry="4" stroke="#000"/>
  <ellipse id="svg_135" fill="#ff0047" stroke-opacity="null" stroke-width="0" cx="860" cy="170" rx="3.99996" ry="4" stroke="#000"/>
  <ellipse id="svg_137" fill="#ff0047" stroke-opacity="null" stroke-width="0" cx="630" cy="410" rx="3.99996" ry="4" stroke="#000"/>
  <ellipse id="svg_138" fill="#000000" stroke-opacity="null" stroke-width="2" cx="120" cy="189" rx="4" ry="4" stroke="#000"/>
  <ellipse id="svg_139" fill="#000000" stroke-opacity="null" stroke-width="2" cx="120" cy="232" rx="4" ry="4" stroke="#000"/>
  <ellipse id="svg_140" fill="#000000" fill-opacity="null" stroke-opacity="null" stroke-width="2" cx="120" cy="248" rx="4" ry="4" stroke="#000"/>
  <ellipse id="svg_141" fill="#000000" fill-opacity="null" stroke-opacity="null" stroke-width="2" cx="120" cy="291" rx="4" ry="3.99996" stroke="#000"/>
  <ellipse id="svg_142" fill="#000000" fill-opacity="null" stroke-opacity="null" stroke-width="2" cx="119.994" cy="308" rx="4" ry="4.49995" stroke="#000"/>
  <ellipse id="svg_143" fill="#000000" fill-opacity="null" stroke-opacity="null" stroke-width="2" cx="120" cy="351" rx="4.49995" ry="4" stroke="#000"/>
  <ellipse id="svg_146" fill="#000000" fill-opacity="null" stroke-opacity="null" stroke-width="2" cx="229" cy="400" rx="4.49995" ry="3.99996" stroke="#000"/>
  <ellipse id="svg_147" fill="#000000" fill-opacity="null" stroke-opacity="null" stroke-width="2" cx="271" cy="400" rx="4" ry="4" stroke="#000"/>
  <ellipse id="svg_148" fill="#000000" fill-opacity="null" stroke-opacity="null" stroke-width="2" cx="320" cy="250" rx="3.99996" ry="4.49995" stroke="#000"/>
  <ellipse id="svg_149" fill="#000000" fill-opacity="null" stroke-opacity="null" stroke-width="2" cx="320" cy="291" rx="4" ry="4" stroke="#000"/>
  <ellipse id="svg_150" fill="#000000" fill-opacity="null" stroke-opacity="null" stroke-width="2" cx="320.491" cy="310" rx="4" ry="3.99996" stroke="#000"/>
  <ellipse id="svg_151" fill="#000000" fill-opacity="null" stroke-opacity="null" stroke-width="2" cx="320" cy="350" rx="4" ry="3.99996" stroke="#000"/>
  <ellipse id="svg_152" fill="#000000" fill-opacity="null" stroke-opacity="null" stroke-width="2" cx="343" cy="371" rx="3.99996" ry="4" stroke="#000"/>
  <ellipse id="svg_153" fill="#000000" fill-opacity="null" stroke-opacity="null" stroke-width="2" cx="343" cy="330" rx="3.99996" ry="4.49995" stroke="#000"/>
  <ellipse id="svg_154" fill="#000000" fill-opacity="null" stroke-opacity="null" stroke-width="2" cx="343" cy="313" rx="4" ry="4" stroke="#000"/>
  <ellipse id="svg_155" fill="#000000" fill-opacity="null" stroke-opacity="null" stroke-width="2" cx="343" cy="268" rx="4" ry="3.99996" stroke="#000"/>
  <ellipse id="svg_156" fill="#000000" fill-opacity="null" stroke-opacity="null" stroke-width="2" cx="343" cy="251" rx="3.99996" ry="4" stroke="#000"/>
  <ellipse id="svg_157" fill="#000000" fill-opacity="null" stroke-opacity="null" stroke-width="2" cx="343.491" cy="211" rx="4.49995" ry="4.49995" stroke="#000"/>
  <ellipse id="svg_168" fill="#000000" fill-opacity="null" stroke-opacity="null" stroke-width="2" cx="558" cy="400" rx="4" ry="3.99996" stroke="#000"/>
  <ellipse id="svg_169" fill="#000000" fill-opacity="null" stroke-opacity="null" stroke-width="2" cx="602" cy="399.996" rx="4" ry="4" stroke="#000"/>
  <ellipse id="svg_170" fill="#000000" fill-opacity="null" stroke-opacity="null" stroke-width="2" cx="630" cy="261" rx="4" ry="4" stroke="#000"/>
  <ellipse id="svg_171" fill="#000000" fill-opacity="null" stroke-opacity="null" stroke-width="2" cx="629.988" cy="311" rx="3.99996" ry="4" stroke="#000"/>
  <ellipse id="svg_172" fill="#000000" fill-opacity="null" stroke-opacity="null" stroke-width="2" cx="630" cy="325" rx="3.99996" ry="3.99996" stroke="#000"/>
  <ellipse id="svg_173" fill="#000000" fill-opacity="null" stroke-opacity="null" stroke-width="2" cx="630" cy="374.996" rx="4" ry="3.99996" stroke="#000"/>
  <ellipse id="svg_174" fill="#000000" fill-opacity="null" stroke-opacity="null" stroke-width="2" cx="692" cy="200" rx="4.49995" ry="3.99996" stroke="#000"/>
  <ellipse id="svg_175" fill="#000000" fill-opacity="null" stroke-opacity="null" stroke-width="2" cx="712" cy="200" rx="4.49995" ry="4" stroke="#000"/>
  <ellipse id="svg_176" fill="#000000" fill-opacity="null" stroke-opacity="null" stroke-width="2" cx="727" cy="199.998" rx="4" ry="4" stroke="#000"/>
  <ellipse id="svg_177" fill="#000000" fill-opacity="null" stroke-opacity="null" stroke-width="2" cx="753" cy="199.998" rx="4" ry="4" stroke="#000"/>
  <ellipse id="svg_178" fill="#000000" fill-opacity="null" stroke-opacity="null" stroke-width="2" cx="768" cy="200" rx="4" ry="3.99996" stroke="#000"/>
  <ellipse id="svg_179" fill="#000000" fill-opacity="null" stroke-opacity="null" stroke-width="2" cx="793" cy="200" rx="3.99996" ry="4" stroke="#000"/>
  <ellipse id="svg_180" fill="#000000" fill-opacity="null" stroke-opacity="null" stroke-width="2" cx="840" cy="269" rx="4" ry="4.49995" stroke="#000"/>
  <ellipse id="svg_181" fill="#000000" fill-opacity="null" stroke-opacity="null" stroke-width="2" cx="840" cy="310" rx="4.49995" ry="4" stroke="#000"/>
  <ellipse id="svg_182" fill="#000000" fill-opacity="null" stroke-opacity="null" stroke-width="2" cx="840.486" cy="330" rx="4" ry="3.99996" stroke="#000"/>
  <ellipse id="svg_183" fill="#000000" fill-opacity="null" stroke-opacity="null" stroke-width="2" cx="840" cy="370" rx="4" ry="4" stroke="#000"/>
  <ellipse id="svg_184" fill="#000000" fill-opacity="null" stroke-opacity="null" stroke-width="2" cx="860" cy="403" rx="3.99996" ry="4" stroke="#000"/>
  <ellipse id="svg_185" fill="#000000" fill-opacity="null" stroke-opacity="null" stroke-width="2" cx="860" cy="357" rx="4.49995" ry="4" stroke="#000"/>
  <ellipse id="svg_186" fill="#000000" fill-opacity="null" stroke-opacity="null" stroke-width="2" cx="860" cy="342" rx="4" ry="4" stroke="#000"/>
  <ellipse id="svg_187" fill="#000000" fill-opacity="null" stroke-opacity="null" stroke-width="2" cx="860" cy="299" rx="4" ry="4.49995" stroke="#000"/>
  <ellipse id="svg_188" fill="#000000" fill-opacity="null" stroke-opacity="null" stroke-width="2" cx="860" cy="283" rx="4" ry="4" stroke="#000"/>
  <ellipse id="svg_189" fill="#000000" fill-opacity="null" stroke-opacity="null" stroke-width="2" cx="860" cy="267" rx="3.99996" ry="4" stroke="#000"/>
  <ellipse id="svg_190" fill="#000000" fill-opacity="null" stroke-opacity="null" stroke-width="2" cx="860" cy="252" rx="4.49995" ry="4" stroke="#000"/>
  <ellipse id="svg_191" fill="#000000" fill-opacity="null" stroke-opacity="null" stroke-width="2" cx="860" cy="237" rx="4.49995" ry="4" stroke="#000"/>
  <path id="svg_192" fill="none" stroke-opacity="null" stroke-width="0" d="m99.99377,194.99777c0,1 -1,1 -1,1.99999c0,0 0,0.99998 0,1.99997c0,0 0,1 0,1.99998c0,0 0,0.99999 0,0.99999l0,1" stroke="#000"/>
  <path id="svg_193" fill="none" stroke-opacity="null" stroke-width="0" d="m99.99377,188.99785c-1,0 -1,0.99998 -1,1.99997c0,0 0,1 0,1c0,0.99998 0,0.99998 0,1.99997c0,0.99998 0,0.99998 0,1.99998c0,0.99999 0,0.99999 0,1.99997l-0.99998,0l0,0.99999" stroke="#000"/>
  <path id="svg_194" fill="none" stroke-opacity="null" stroke-width="0" d="m98.99377,196.99776c0,0.99998 0,1.99997 0,1.99997c0,1 0,1.99998 0,1.99998c0,0.99999 0,1.99999 0,1.99999c0,0.99998 0,1.99997 0,1.99997l0,0.99998" stroke="#000"/>
  <path id="svg_195" fill="none" stroke-opacity="null" stroke-width="0" d="m98.99377,204.99767c0,0.99998 0,1.99998 0,1.99998c0,0.99999 0,1.99997 0,1.99997c0,0 0,0.99998 0,1.99998c0,0 0,0.99999 0,1.99997c0,0 1,1.99999 1,1.99999c0,0.99998 0,1.99997 0,1.99997c0.99999,1 0.99999,1.99998 0.99999,2.99997l0,1l0,0l0,0.99998" stroke="#000"/>
  <path id="svg_196" fill="none" stroke-opacity="null" stroke-width="0" d="m106.99369,321.99637c0,-1 0,-1 0,-1.99997c0,-1 0,-1 0,-1.99997c0,-1 0,-1 0,-2c0,-0.99997 0,-0.99997 0,-1.99997c0,-1 0,-1 0,-1.99997c0,-1 0,-1 0,-2l0,-0.99997l0,0l0,-1" stroke="#000"/>
  <path id="svg_197" fill="#000005" stroke-opacity="null" stroke-width="0" d="m99.99377,311.99649c0,0.99997 0,0.99997 0,1.99997c0,1 0,1 0,1.99997c0,1 0,1 0,2l0,0.99997l0,0l0,1" stroke="#000"/>
  <path id="svg_198" fill="none" stroke-opacity="null" stroke-width="0" d="m65.99414,251.99715c0,0.99998 -0.4588,0.69343 -0.99998,1.99998c-0.38268,0.92388 0,0.99999 0,1.99997c0,1 -0.4588,0.69345 -0.99999,1.99997c-0.38269,0.92389 -0.99999,1 -0.99999,2c0,0.99997 0,0.99997 0,1.99997c0,0.99997 -0.99999,0.99997 -0.99999,1.99997c0,1 0,1 0,1.99997c0,1 -0.99999,1 -0.99999,2c0,0.99997 0,0.99997 0,1.99997c0,1 0,1 0,1.99997c0,1 -0.99999,1 -0.99999,1.99996c0,1 0.70711,1.29291 0,2c-0.7071,0.7071 -0.99999,0.99997 -0.99999,0.99997c0,1 0,2 0,2c0,0 0,0.99997 0,1.99997c0,0 0,1 0,1.99997c0,0 0.70711,1.29291 0,2c-0.7071,0.70709 -0.99999,0 -0.99999,0.99997c0,1 0,1 0,1.99997l0,1" stroke="#000"/>
  <path id="svg_199" fill="none" stroke-opacity="null" stroke-width="0" d="m60.9942,147.99831c0,0.99998 0,0.99998 0,1.99997c0,0.99998 0,0.99998 0,1.99998c0,0.99999 0.29289,1.29288 0.99999,1.99997c0.70709,0.70709 0,1.99998 0,2.99997c0,0 0.99999,0 0.99999,1.99998c0,0 0,1.99997 0,1.99997c0,0.99999 0,1.99999 0,2.99997c0,0.99999 0,1.99997 0,2.99997c0,1.99997 0,1.99997 0,2.99997c0,0.99998 0.99999,1.99997 0.99999,2.99995c0,1.99999 0.99999,1.99999 0.99999,2.99997c0,0.99999 0,1.99999 0,2.99997c0,0.99999 0,1.99999 0,1.99999c0,0.99998 0,1.99996 0,1.99996c0.99998,0.99999 0.99998,1.99999 0.99998,1.99999c0,0.99998 0,1.99997 0,1.99997c0,0.99998 0.99999,0.99998 0.99999,1.99998l0,0l0,0.99999" stroke="#000"/>
  <rect id="svg_206" fill="#a5a5a5" stroke-opacity="null" stroke-width="0" x="626.000013" y="181" width="38.999987" height="20" stroke="#000"/>
  <rect id="svg_207" fill="#a5a5a5" stroke-opacity="null" stroke-width="0" x="549.989" y="159.998002" width="61.9993" height="63.999298" stroke="#000"/>
  <rect id="svg_212" fill="#70ad47" stroke-opacity="null" stroke-width="2" x="480.999996" y="381" width="49.000004" height="20" stroke="#000"/>
  <rect id="svg_213" fill="#70ad47" stroke-opacity="null" stroke-width="0" x="509" y="390.996" width="4.99994" height="7.99991" stroke="#000"/>
  <rect id="svg_214" fill="#70ad47" stroke-opacity="null" stroke-width="2" x="341" y="380.996" width="39.999989" height="19.9998" stroke="#000"/>
  <rect id="svg_217" fill="#70ad47" fill-opacity="null" stroke-opacity="null" stroke-width="2" x="120" y="101" width="40" height="20" stroke="#000"/>
  <rect id="svg_218" fill="#70ad47" stroke-opacity="null" stroke-width="2" x="279.992" y="180" width="40" height="20" stroke="#000"/>
  <ellipse id="svg_219" fill="#ff0047" fill-opacity="null" stroke-opacity="null" stroke-width="0" cx="655" cy="179.998" rx="3.99996" ry="4" stroke="#000"/>
  <ellipse id="svg_220" fill="#ff0047" fill-opacity="null" stroke-opacity="null" stroke-width="0" cx="519.989" cy="400.995" rx="3.99996" ry="3.99996" stroke="#000"/>
  <ellipse id="svg_221" fill="#ff0047" fill-opacity="null" stroke-opacity="null" stroke-width="0" cx="525" cy="240.497" rx="4" ry="4.49995" stroke="#000"/>
  <ellipse id="svg_224" fill="#ff0047" fill-opacity="null" stroke-opacity="null" stroke-width="0" cx="120" cy="110" rx="4" ry="4.49995" stroke="#000"/>
  <ellipse id="svg_225" fill="#ff0047" fill-opacity="null" stroke-opacity="null" stroke-width="0" cx="313" cy="179" rx="4" ry="4.49995" stroke="#000"/>
  <ellipse id="svg_226" fill="#ff0047" fill-opacity="null" stroke-opacity="null" stroke-width="0" cx="340" cy="390" rx="4" ry="4.49995" stroke="#000"/>
  <line id="svg_229" fill="none" fill-opacity="null" stroke-linecap="null" stroke-linejoin="null" stroke-opacity="null" stroke-width="2" x1="839" y1="160" x2="864.985" y2="159.998" stroke="#000"/>
  <line id="svg_230" fill="none" fill-opacity="null" stroke-linecap="null" stroke-linejoin="null" stroke-opacity="null" stroke-width="2" x1="679.987" y1="220" x2="801" y2="220" stroke="#000"/>
  <line id="svg_231" fill="none" fill-opacity="null" stroke-linecap="null" stroke-linejoin="null" stroke-opacity="null" stroke-width="2" x1="480" y1="420" x2="629" y2="419.995" stroke="#000"/>
  <line id="svg_232" fill="none" fill-opacity="null" stroke-linecap="null" stroke-linejoin="null" stroke-opacity="null" stroke-width="2" x1="481" y1="402" x2="481" y2="402" stroke="#000"/>
  <line id="svg_233" fill="none" fill-opacity="null" stroke-linecap="null" stroke-linejoin="null" stroke-opacity="null" stroke-width="2" x1="100" y1="420" x2="382" y2="420" stroke="#000"/>
  <line id="svg_234" fill="none" fill-opacity="null" stroke-linecap="null" stroke-linejoin="null" stroke-opacity="null" stroke-width="2" x1="381" y1="400" x2="380.991" y2="401" stroke="#000"/>
  <line id="svg_243" fill="none" fill-opacity="null" stroke-linecap="null" stroke-linejoin="null" stroke-opacity="null" stroke-width="2" x1="99" y1="101" x2="119" y2="101" stroke="#000"/>
  <line id="svg_249" fill="none" fill-opacity="null" stroke-linecap="null" stroke-linejoin="null" stroke-opacity="null" stroke-width="2" x1="549" y1="223.997" x2="611" y2="224" stroke="#000"/>
  <line id="svg_250" fill="none" fill-opacity="null" stroke-linecap="null" stroke-linejoin="null" stroke-opacity="null" stroke-width="2" x1="550" y1="224.997" x2="550" y2="400" stroke="#000"/>
  <line id="svg_254" fill="none" fill-opacity="null" stroke-linecap="null" stroke-linejoin="null" stroke-opacity="null" stroke-width="2" x1="119.994" y1="120" x2="120" y2="160" stroke="#000"/>
  <line id="svg_256" fill="none" fill-opacity="null" stroke-linecap="null" stroke-linejoin="null" stroke-opacity="null" stroke-width="2" x1="120" y1="187.997977" x2="120" y2="380" stroke="#000"/>
  <line id="svg_257" fill="none" fill-opacity="null" stroke-linecap="null" stroke-linejoin="null" stroke-opacity="null" stroke-width="2" x1="119" y1="380" x2="161" y2="380" stroke="#000"/>
  <line id="svg_260" fill="none" fill-opacity="null" stroke-linecap="null" stroke-linejoin="null" stroke-opacity="null" stroke-width="2" x1="479.99" y1="180" x2="520" y2="180" stroke="#000"/>
  <line id="svg_261" fill="none" fill-opacity="null" stroke-linecap="null" stroke-linejoin="null" stroke-opacity="null" stroke-width="2" x1="519.989" y1="179" x2="520" y2="240" stroke="#000"/>
  <line id="svg_262" fill="none" fill-opacity="null" stroke-linecap="null" stroke-linejoin="null" stroke-opacity="null" stroke-width="2" x1="684" y1="200" x2="821" y2="200" stroke="#000"/>
  <line id="svg_263" fill="none" fill-opacity="null" stroke-linecap="null" stroke-linejoin="null" stroke-opacity="null" stroke-width="2" x1="820" y1="180" x2="819.986" y2="199.998" stroke="#000"/>
  <line id="svg_264" fill="none" fill-opacity="null" stroke-linecap="null" stroke-linejoin="null" stroke-opacity="null" stroke-width="2" x1="800" y1="179.998" x2="840" y2="180" stroke="#000"/>
  <line id="svg_267" fill="none" fill-opacity="null" stroke-linecap="null" stroke-linejoin="null" stroke-opacity="null" stroke-width="2" x1="629" y1="220" x2="841" y2="220" stroke="#000"/>
  <line id="svg_269" fill="none" fill-opacity="null" stroke-linecap="null" stroke-linejoin="null" stroke-opacity="null" stroke-width="2" x1="860" y1="225" x2="859.985" y2="410" stroke="#000"/>
  <line id="svg_270" fill="none" fill-opacity="null" stroke-linecap="null" stroke-linejoin="null" stroke-opacity="null" stroke-width="2" x1="381" y1="401" x2="483" y2="401" stroke="#000"/>
  <line id="svg_274" fill="none" fill-opacity="null" stroke-linecap="null" stroke-linejoin="null" stroke-opacity="null" stroke-width="2" x1="610" y1="224.997" x2="610" y2="400" stroke="#000"/>
  <line id="svg_275" fill="none" fill-opacity="null" stroke-linecap="null" stroke-linejoin="null" stroke-opacity="null" stroke-width="2" x1="549" y1="400" x2="611" y2="400" stroke="#000"/>
  <line id="svg_276" fill="none" fill-opacity="null" stroke-linecap="null" stroke-linejoin="null" stroke-opacity="null" stroke-width="2" x1="279.992" y1="380" x2="320" y2="380" stroke="#000"/>
  <line id="svg_277" fill="none" fill-opacity="null" stroke-linecap="null" stroke-linejoin="null" stroke-opacity="null" stroke-width="2" x1="280" y1="380" x2="280" y2="400" stroke="#000"/>
  <line id="svg_278" fill="none" fill-opacity="null" stroke-linecap="null" stroke-linejoin="null" stroke-opacity="null" stroke-width="2" x1="160" y1="400" x2="281" y2="400" stroke="#000"/>
  <line id="svg_279" fill="none" fill-opacity="null" stroke-linecap="null" stroke-linejoin="null" stroke-opacity="null" stroke-width="2" x1="320" y1="200" x2="319.991" y2="381" stroke="#000"/>
  <line id="svg_280" fill="none" fill-opacity="null" stroke-linecap="null" stroke-linejoin="null" stroke-opacity="null" stroke-width="2" x1="362" y1="180" x2="382" y2="180" stroke="#000"/>
  <line stroke="#000" id="svg_283" fill="none" fill-opacity="null" stroke-linecap="null" stroke-linejoin="null" stroke-opacity="null" stroke-width="2" x1="341" y1="200.333334" x2="341" y2="381"/>
  <line id="svg_284" fill="none" fill-opacity="null" stroke-linecap="null" stroke-linejoin="null" stroke-opacity="null" stroke-width="2" x1="630" y1="220" x2="629.988" y2="400" stroke="#000"/>
  <line id="svg_285" fill="none" fill-opacity="null" stroke-linecap="null" stroke-linejoin="null" stroke-opacity="null" stroke-width="2" x1="839.986" y1="419.995" x2="858.985" y2="419.995" stroke="#000"/>
  <line id="svg_286" fill="none" fill-opacity="null" stroke-linecap="null" stroke-linejoin="null" stroke-opacity="null" stroke-width="2" x1="860" y1="408.995" x2="860" y2="421" stroke="#000"/>
  <line id="svg_287" fill="none" fill-opacity="null" stroke-linecap="null" stroke-linejoin="null" stroke-opacity="null" stroke-width="2" x1="840" y1="220.997" x2="840" y2="400" stroke="#000"/>
  <line stroke-linecap="null" stroke-linejoin="null" id="svg_3" y2="229.583288" x2="860.416725" y1="179.583284" x1="859.583392" fill-opacity="null" stroke-opacity="null" stroke-width="2" fill="none" stroke="#000"/>
  <ellipse id="svg_5" fill="#ff0047" fill-opacity="null" stroke-opacity="null" stroke-width="0" cx="666.000004" cy="189.998004" rx="3.99996" ry="4" stroke="#000"/>
  <line id="svg_7" fill="none" fill-opacity="null" stroke-linecap="null" stroke-linejoin="null" stroke-opacity="null" stroke-width="3" x1="381.325474" y1="401.330474" x2="381.325474" y2="407.997145" stroke="#000"/>
  <line id="svg_9" fill="none" fill-opacity="null" stroke-linecap="null" stroke-linejoin="null" stroke-opacity="null" stroke-width="3" x1="381.325474" y1="411.9971" x2="381.325474" y2="419.9971" stroke="#000"/>
  <line id="svg_11" fill="none" fill-opacity="null" stroke-linecap="null" stroke-linejoin="null" stroke-opacity="null" stroke-width="3" x1="481.325116" y1="401.330474" x2="481.325116" y2="407.997145" stroke="#000"/>
  <line stroke="#000" id="svg_12" fill="none" fill-opacity="null" stroke-linecap="null" stroke-linejoin="null" stroke-opacity="null" stroke-width="3" x1="481.325115" y1="411.9971" x2="481.325115" y2="419.9971"/>
  <line id="svg_16" fill="none" fill-opacity="null" stroke-linecap="null" stroke-linejoin="null" stroke-opacity="null" stroke-width="3" x1="381" y1="419.666601" x2="483" y2="419.666601" stroke="#000"/>
  <rect stroke="#a5a5a5" fill="#a5a5a5" stroke-width="2" x="382.665272" y="402.665246" width="97.332978" height="15.999947" id="svg_21"/>
  <line fill="none" stroke="#000" stroke-width="2" stroke-opacity="null" fill-opacity="null" x1="158.666063" y1="181.33269" x2="279.998966" y2="179.999361" id="svg_23" stroke-linejoin="null" stroke-linecap="null"/>
  <line fill="none" stroke-opacity="null" fill-opacity="null" x1="155.999399" y1="158.666104" x2="629.331027" y2="159.999432" id="svg_24" stroke-linejoin="null" stroke-linecap="null" stroke-width="2" stroke="#000"/>
  <line id="svg_45" fill="none" fill-opacity="null" stroke-linecap="null" stroke-linejoin="null" stroke-opacity="null" stroke-width="2" x1="100.000071" y1="99.99829" x2="100.000071" y2="160.000777" stroke="#000"/>
  <rect id="svg_54" fill="#00b0f0" fill-opacity="null" stroke-opacity="null" stroke-width="2" x="445.980847" y="179.998328" width="33.999899" height="40" stroke="#000"/>
  <rect id="svg_99" fill="#00b0f0" fill-opacity="null" stroke-opacity="null" stroke-width="2" x="413.980317" y="179.998328" width="31.999868" height="40" stroke="#000"/>
  <rect id="svg_100" fill="#00b0f0" fill-opacity="null" stroke-opacity="null" stroke-width="2" x="381.979796" y="179.998328" width="31.999869" height="40" stroke="#000"/>
  <rect stroke="#000" id="svg_101" fill="#00b0f0" fill-opacity="null" stroke-opacity="null" stroke-width="2" x="479.98141" y="179.998328" width="15.999609" height="40"/>
  <rect id="svg_102" fill="#00b0f0" fill-opacity="null" stroke-opacity="null" stroke-width="2" x="119.990173" y="119.999344" width="40" height="40" stroke="#000"/>
  <text fill="#000000" stroke-width="0" fill-opacity="null" x="130.002133" y="144.002363" id="svg_107" font-size="NaN" font-family="Helvetica,Arial,sans-serif" text-anchor="start" xml:space="preserve" stroke="#0000a0">436</text>
  <rect id="svg_108" fill="#ffffff" stroke-opacity="null" stroke-width="2" x="59.988384" y="157.999312" width="39.9996" height="40" stroke="#000"/>
  <rect id="svg_109" fill="#70ad47" stroke-opacity="null" stroke-width="2" x="59.988384" y="198.000296" width="40" height="20" stroke="#000"/>
  <rect id="svg_114" fill="#00b0f0" fill-opacity="null" stroke-opacity="null" stroke-width="2" x="59.989197" y="218.000954" width="40" height="40" stroke="#000"/>
  <rect id="svg_119" fill="#00b0f0" stroke-opacity="null" stroke-width="2" x="59.999016" y="258.000295" width="40" height="62.000034" stroke="#000"/>
  <rect id="svg_120" fill="#00b0f0" stroke-opacity="null" stroke-width="2" x="59.999016" y="320.001309" width="40" height="60" stroke="#000"/>
  <rect id="svg_121" fill="#00b0f0" stroke-opacity="null" stroke-width="2" x="547.999967" y="159.997053" width="59.9993" height="39.999672" stroke="#000"/>
  <rect id="svg_122" fill="#70ad47" stroke-opacity="null" stroke-width="2" x="59.988384" y="380.003284" width="40" height="20" stroke="#000"/>
  <rect id="svg_123" fill="#ffffff" stroke-opacity="null" stroke-width="2" x="59.993016" y="400.000656" width="40" height="19.9998" stroke="#000"/>
  <text xml:space="preserve" text-anchor="start" font-family="Helvetica, Arial, sans-serif" font-size="24" id="svg_13" y="204" x="388" stroke-width="0" stroke="#000" fill="#000000"/>
  <text id="svg_46" font-family="Helvetica,Arial,sans-serif" font-size="NaN" fill="#000000" fill-opacity="null" stroke-opacity="null" stroke-width="0" text-anchor="start" x="385" y="208.9973" xml:space="preserve" stroke="#000">423</text>
  <text xml:space="preserve" text-anchor="start" font-family="Helvetica,Arial,sans-serif" font-size="NaN" id="svg_52" y="208" x="420" fill-opacity="null" stroke-opacity="null" stroke-width="0" stroke="#000" fill="#000000">422</text>
  <text xml:space="preserve" text-anchor="start" font-family="Helvetica,Arial,sans-serif" font-size="NaN" id="svg_53" y="208" x="452" fill-opacity="null" stroke-opacity="null" stroke-width="0" stroke="#000" fill="#000000">421</text>
  <text stroke="#000" transform="matrix(0.9090909361839294,0,0,1,44.36362314224243,0) " xml:space="preserve" text-anchor="start" font-family="Helvetica,Arial,sans-serif" font-size="NaN" id="svg_76" y="208" x="479.2" fill-opacity="null" stroke-opacity="null" stroke-width="0" fill="#000000">420</text>
  <text xml:space="preserve" text-anchor="start" font-family="Helvetica,Arial,sans-serif" font-size="NaN" id="svg_124" y="182" x="566" fill-opacity="null" stroke-opacity="null" stroke-width="0" stroke="#000" fill="#000000">412</text>
  <text xml:space="preserve" text-anchor="start" font-family="Helvetica,Arial,sans-serif" font-size="NaN" id="svg_129" y="246" x="70" fill-opacity="null" stroke-opacity="null" stroke-width="0" stroke="#000" fill="#000000">437</text>
  <text xml:space="preserve" text-anchor="start" font-family="Helvetica,Arial,sans-serif" font-size="NaN" id="svg_130" y="294" x="70" fill-opacity="null" stroke-opacity="null" stroke-width="0" stroke="#000" fill="#000000">438</text>
  <text xml:space="preserve" text-anchor="start" font-family="Helvetica,Arial,sans-serif" font-size="NaN" id="svg_132" y="352" x="70" fill-opacity="null" stroke-opacity="null" stroke-width="0" stroke="#000" fill="#000000">439</text>
  <line stroke="#000" id="svg_136" fill="none" fill-opacity="null" stroke-linecap="null" stroke-linejoin="null" stroke-opacity="null" stroke-width="2" x1="495.989" y1="159.998" x2="495.989" y2="165"/>
  <line stroke="#000" id="svg_158" fill="none" fill-opacity="null" stroke-linecap="null" stroke-linejoin="null" stroke-opacity="null" stroke-width="2" x1="495.989" y1="159.998" x2="495.989" y2="165"/>
  <rect id="svg_160" fill="#00b0f0" stroke-opacity="null" stroke-width="2" x="479.999691" y="262.000005" width="50" height="60" stroke="#000"/>
  <rect id="svg_161" fill="#00b0f0" stroke-opacity="null" stroke-width="2" x="479.999695" y="320.000125" width="50" height="60" stroke="#000"/>
  <ellipse id="svg_162" fill="#000000" fill-opacity="null" stroke-opacity="null" stroke-width="2" cx="529.999794" cy="273.000025" rx="4" ry="4" stroke="#000"/>
  <ellipse id="svg_163" fill="#000000" fill-opacity="null" stroke-opacity="null" stroke-width="2" cx="529.999794" cy="307.000095" rx="4" ry="4" stroke="#000"/>
  <ellipse id="svg_164" fill="#000000" fill-opacity="null" stroke-opacity="null" stroke-width="2" cx="529.999798" cy="335.000153" rx="4" ry="4" stroke="#000"/>
  <ellipse stroke="#000" id="svg_165" fill="#000000" fill-opacity="null" stroke-opacity="null" stroke-width="2" cx="529.999798" cy="369.000221" rx="4" ry="4"/>
  <text xml:space="preserve" text-anchor="start" font-family="Helvetica,Arial,sans-serif" font-size="NaN" id="svg_166" y="294.000598" x="495.334341" fill-opacity="null" stroke-opacity="null" stroke-width="0" stroke="#000" fill="#000000">418</text>
  <text xml:space="preserve" text-anchor="start" font-family="Helvetica,Arial,sans-serif" font-size="NaN" id="svg_167" y="354.00072" x="497.334345" fill-opacity="null" stroke-opacity="null" stroke-width="0" stroke="#000" fill="#000000">417</text>
  <ellipse id="svg_200" fill="#000000" fill-opacity="null" stroke-opacity="null" stroke-width="2" cx="99.998905" cy="226.999932" rx="4" ry="4" stroke="#000"/>
  <ellipse id="svg_201" fill="#000000" fill-opacity="null" stroke-opacity="null" stroke-width="2" cx="99.998901" cy="248.999975" rx="4" ry="4" stroke="#000"/>
  <ellipse id="svg_202" fill="#000000" fill-opacity="null" stroke-opacity="null" stroke-width="2" cx="99.998905" cy="275.000029" rx="4" ry="4" stroke="#000"/>
  <ellipse id="svg_203" fill="#000000" fill-opacity="null" stroke-opacity="null" stroke-width="2" cx="99.998905" cy="305.000088" rx="4" ry="4" stroke="#000"/>
  <ellipse id="svg_204" fill="#000000" fill-opacity="null" stroke-opacity="null" stroke-width="2" cx="99.998905" cy="335.000153" rx="4" ry="4" stroke="#000"/>
  <ellipse id="svg_205" fill="#000000" fill-opacity="null" stroke-opacity="null" stroke-width="2" cx="99.998901" cy="365.000214" rx="4" ry="4" stroke="#000"/>
  <ellipse id="svg_208" fill="#ff0047" fill-opacity="null" stroke-opacity="null" stroke-width="0" cx="99.99996" cy="390.00058" rx="4" ry="4.49995" stroke="#000"/>
  <ellipse id="svg_209" fill="#ff0047" fill-opacity="null" stroke-opacity="null" stroke-width="0" cx="99.99996" cy="208.000198" rx="4" ry="4.49995" stroke="#000"/>
  <line stroke="#000" id="svg_210" fill="none" fill-opacity="null" stroke-linecap="null" stroke-linejoin="null" stroke-opacity="null" stroke-width="2" x1="297.322344" y1="159.998" x2="297.322344" y2="165"/>
  <line stroke="#000" id="svg_211" fill="none" fill-opacity="null" stroke-linecap="null" stroke-linejoin="null" stroke-opacity="null" stroke-width="2" x1="297.322344" y1="174.664666" x2="297.322344" y2="179.666666"/>
  <ellipse id="svg_215" fill="#000000" fill-opacity="null" stroke-opacity="null" stroke-width="2" cx="388.824333" cy="179" rx="4.49995" ry="4.49995" stroke="#000"/>
  <ellipse id="svg_216" fill="#000000" fill-opacity="null" stroke-opacity="null" stroke-width="2" cx="406.157665" cy="179.000001" rx="4.49995" ry="4.49995" stroke="#000"/>
  <ellipse id="svg_222" fill="#000000" fill-opacity="null" stroke-opacity="null" stroke-width="2" cx="420.824333" cy="179.000001" rx="4.49995" ry="4.49995" stroke="#000"/>
  <ellipse id="svg_223" fill="#000000" fill-opacity="null" stroke-opacity="null" stroke-width="2" cx="438.157664" cy="179.000001" rx="4.49995" ry="4.49995" stroke="#000"/>
  <ellipse id="svg_227" fill="#000000" fill-opacity="null" stroke-opacity="null" stroke-width="2" cx="454.157664" cy="179.000001" rx="4.49995" ry="4.49995" stroke="#000"/>
  <ellipse id="svg_228" fill="#000000" fill-opacity="null" stroke-opacity="null" stroke-width="2" cx="470.157664" cy="179.000001" rx="4.49995" ry="4.49995" stroke="#000"/>
  <ellipse id="svg_235" fill="#000000" fill-opacity="null" stroke-opacity="null" stroke-width="2" cx="480.824328" cy="179.000001" rx="4.49995" ry="4.49995" stroke="#000"/>
  <ellipse id="svg_236" fill="#000000" fill-opacity="null" stroke-opacity="null" stroke-width="2" cx="492.824328" cy="179" rx="4.49995" ry="4.49995" stroke="#000"/>
  <line stroke="#000" id="svg_237" fill="none" fill-opacity="null" stroke-linecap="null" stroke-linejoin="null" stroke-opacity="null" stroke-width="2" x1="341.000008" y1="201.000005" x2="364.333341" y2="201.000005"/>
  <rect id="svg_238" fill="#00b0f0" stroke-opacity="null" stroke-width="2" x="159.999825" y="360.000008" width="60" height="40" stroke="#000"/>
  <ellipse id="svg_239" fill="#000000" fill-opacity="null" stroke-opacity="null" stroke-width="2" cx="170.490567" cy="400.000261" rx="4" ry="3.99996" stroke="#000"/>
  <ellipse id="svg_240" fill="#000000" fill-opacity="null" stroke-opacity="null" stroke-width="2" cx="204.490662" cy="400.000259" rx="4" ry="3.99996" stroke="#000"/>
  <text stroke="#000" xml:space="preserve" text-anchor="start" font-family="Helvetica,Arial,sans-serif" font-size="NaN" id="svg_241" y="386.001125" x="178.000519" fill-opacity="null" stroke-opacity="null" stroke-width="0" fill="#000000">431</text>
 </g>
</svg>